<svg width="19" height="19" viewBox="0 0 19 19" fill="none" xmlns="http://www.w3.org/2000/svg">
<g clip-path="url(#clip0_1304_1917)">
<path d="M1.15018 17.2256H7.90309C8.01543 17.2279 8.1271 17.2078 8.23156 17.1664C8.33602 17.125 8.43117 17.0632 8.51144 16.9846C8.59171 16.906 8.65548 16.8121 8.69902 16.7086C8.74255 16.605 8.76498 16.4937 8.76498 16.3814C8.76498 16.269 8.74255 16.1578 8.69902 16.0542C8.65548 15.9506 8.59171 15.8568 8.51144 15.7782C8.43117 15.6995 8.33602 15.6377 8.23156 15.5963C8.1271 15.555 8.01543 15.5348 7.90309 15.5372H2.05441C2.25925 14.1316 2.96278 12.8466 4.03656 11.9168C5.11033 10.987 6.4827 10.4745 7.90309 10.4727C8.89705 10.4814 9.86272 10.142 10.6328 9.51346C11.4028 8.88491 11.9286 8.00675 12.1192 7.03119C12.3097 6.05563 12.1529 5.04415 11.676 4.17204C11.1991 3.29994 10.4321 2.62218 9.50789 2.25622C8.58371 1.89027 7.56062 1.85918 6.61593 2.16836C5.67124 2.47753 4.86449 3.10748 4.3355 3.94902C3.80651 4.79056 3.58861 5.79066 3.71958 6.77599C3.85054 7.76132 4.32211 8.66978 5.05256 9.34392C3.65152 9.91226 2.45167 10.8853 1.60624 12.1388C0.760814 13.3923 0.308183 14.8693 0.306152 16.3812C0.306105 16.4921 0.327901 16.6019 0.370296 16.7043C0.412691 16.8067 0.474853 16.8998 0.553233 16.9782C0.631613 17.0567 0.724673 17.1189 0.827098 17.1613C0.929524 17.2037 1.03931 17.2256 1.15018 17.2256ZM7.90309 3.71939C8.40398 3.71932 8.89363 3.86779 9.31014 4.14601C9.72664 4.42423 10.0513 4.81972 10.243 5.28246C10.4347 5.74519 10.4849 6.25439 10.3873 6.74566C10.2896 7.23693 10.0484 7.6882 9.69428 8.0424C9.34013 8.3966 8.8889 8.63783 8.39764 8.73558C7.90639 8.83332 7.39718 8.78319 6.93442 8.59153C6.47165 8.39986 6.07612 8.07527 5.79784 7.65881C5.51955 7.24235 5.37102 6.75271 5.37102 6.25183C5.37102 5.58025 5.63778 4.93617 6.11263 4.46125C6.58747 3.98634 7.23151 3.71949 7.90309 3.71939Z" fill="#979797"/>
<path d="M18.033 12.1607H15.5006V9.62754C15.496 9.40668 15.405 9.1964 15.2472 9.04182C15.0894 8.88724 14.8773 8.80066 14.6564 8.80066C14.4354 8.80066 14.2233 8.88724 14.0655 9.04182C13.9077 9.1964 13.8167 9.40668 13.8121 9.62754V12.16H11.2801C11.0562 12.16 10.8415 12.2489 10.6832 12.4072C10.525 12.5655 10.436 12.7801 10.436 13.004C10.436 13.2278 10.525 13.4425 10.6832 13.6008C10.8415 13.7591 11.0562 13.848 11.2801 13.848H13.8121V16.3812C13.8098 16.4935 13.8299 16.6052 13.8713 16.7096C13.9127 16.8141 13.9745 16.9093 14.0531 16.9895C14.1317 17.0698 14.2256 17.1336 14.3292 17.1771C14.4328 17.2206 14.544 17.2431 14.6564 17.2431C14.7687 17.2431 14.8799 17.2206 14.9835 17.1771C15.0871 17.1336 15.181 17.0698 15.2596 16.9895C15.3382 16.9093 15.4 16.8141 15.4414 16.7096C15.4828 16.6052 15.5029 16.4935 15.5006 16.3812V13.8487H18.033C18.2569 13.8487 18.4715 13.7598 18.6298 13.6015C18.7881 13.4432 18.877 13.2286 18.877 13.0047C18.877 12.7809 18.7881 12.5662 18.6298 12.4079C18.4715 12.2496 18.2569 12.1607 18.033 12.1607Z" fill="#979797"/>
</g>
<defs>
<clipPath id="clip0_1304_1917">
<rect width="18.5707" height="18.5707" fill="white" transform="translate(0.306152 0.305908)"/>
</clipPath>
</defs>
</svg>
