<svg width="447" height="429" viewBox="0 0 447 429" fill="none" xmlns="http://www.w3.org/2000/svg">
<path d="M51.5959 194.566C51.5959 194.566 59.8426 186.33 55.7193 181.794C51.5959 177.258 50.3529 176.041 50.7712 169.034C51.1895 162.027 41.6998 163.686 41.6998 157.515C41.6998 151.344 39.2258 147.226 33.8714 145.985C28.517 144.743 30.1663 137.748 26.8676 137.748C23.5689 137.748 19.8519 142.284 22.3259 146.402C24.8 150.52 27.274 152.574 26.4493 157.515C25.6246 162.457 31.8157 162.039 32.6403 166.157C33.465 170.275 28.517 174.799 33.0467 178.918C37.5764 183.036 42.1181 184.265 40.8751 187.977C39.6322 191.69 46.612 196.226 51.5959 194.566Z" fill="#54A259"/>
<path d="M51.07 200.594C51.07 200.594 40.8991 190.436 45.9786 184.85C51.0581 179.264 52.5999 177.688 52.0859 169.106C51.572 160.523 63.2728 162.505 63.2728 154.877C63.2728 147.25 66.3325 142.189 72.906 140.661C79.4795 139.133 77.4835 130.503 81.5471 130.503C85.6107 130.503 90.2002 136.089 87.1406 141.174C84.0809 146.259 81.0452 148.79 82.0611 154.877C83.077 160.965 75.4398 160.475 74.4239 165.549C73.408 170.622 79.5153 176.22 73.9219 181.293C68.3284 186.366 62.735 187.894 64.2529 192.466C65.7708 197.037 57.1774 202.636 51.07 200.594Z" fill="#68BF73"/>
<path d="M58.4443 217.759H46.9945C45.6385 217.757 44.3289 217.266 43.3074 216.375C42.286 215.484 41.6216 214.255 41.4369 212.913L38.3892 190.723H67.0735L64.0258 212.913C63.8406 214.259 63.1728 215.492 62.1463 216.383C61.1199 217.274 59.8045 217.763 58.4443 217.759Z" fill="#D5E7F7"/>
<path d="M428.173 151.356C428.173 151.356 418.325 160.404 426.596 176.136C434.866 191.869 428.986 209.165 421.875 213.88" stroke="#171142" stroke-width="0.98833" stroke-miterlimit="10"/>
<path d="M407.102 202.385C407.102 202.385 415.373 206.217 415.373 214.477H396.178L407.102 202.385Z" fill="#D5E7F7"/>
<path d="M394.899 114.197L394.111 122.064L430.731 158.637L433.492 149.983L394.899 114.197Z" fill="#D5E7F7"/>
<path d="M395.813 108.963L391.638 113.132L435.347 156.786L439.522 152.617L395.813 108.963Z" fill="#171142"/>
<path d="M432.258 150.108L386.587 216.178L395.331 222.207L441.002 156.137L432.258 150.108Z" fill="#171142"/>
<path d="M283.867 315.138L253.94 423.677H250.785L275.202 312.786L283.867 315.138Z" fill="#7B9ED2"/>
<path d="M258.661 315.138L228.734 423.677H225.59L250.008 312.786L258.661 315.138Z" fill="#7B9ED2"/>
<path d="M301.185 315.138L331.113 423.677H334.268L309.85 312.786L301.185 315.138Z" fill="#7B9ED2"/>
<path d="M326.392 315.138L356.319 423.677H359.462L335.045 312.786L326.392 315.138Z" fill="#7B9ED2"/>
<path d="M338.236 242.79C338.236 242.79 337.447 180.66 308.357 179.872C279.266 179.085 261.111 202.671 257.956 230.985C254.801 259.299 235.917 297.83 231.973 309.635C228.028 321.44 283.162 325.368 298.126 320.653C313.089 315.938 344.582 315.15 342.216 282.109C339.85 249.069 338.236 242.79 338.236 242.79Z" fill="#F89821"/>
<path d="M331.901 188.515C331.901 188.515 365.366 287.863 346.865 308.071C325.603 331.264 243.697 322.61 240.494 317.895C237.291 313.18 323.177 319.865 332.63 297.842C342.084 275.819 320.033 190.878 323.965 188.515C327.898 186.151 329.535 183.012 331.901 188.515Z" fill="#FEC21C"/>
<path d="M270.876 92.9622C270.876 92.9622 248.825 102.106 254.334 129.966C256.725 133.547 262.999 128.39 274.808 129.178C286.616 129.966 303.492 125.239 302.763 116.991C302.034 108.742 292.138 87.4594 270.876 92.9622Z" fill="#050505"/>
<path d="M228.351 136.614C228.351 136.614 229.128 127.96 222.435 124.427C218.103 121.969 214.346 118.616 211.415 114.591C211.046 114.79 210.721 115.061 210.46 115.389C210.198 115.716 210.006 116.093 209.894 116.497C209.782 116.901 209.754 117.323 209.81 117.738C209.866 118.153 210.005 118.553 210.22 118.912C211.798 121.67 213.375 122.493 213.375 124.427C213.337 125.712 212.921 126.957 212.18 128.008C212.18 128.008 207.399 124.857 204.304 122.505C201.208 120.154 195.639 111.882 194.456 112.669C193.272 113.457 192.89 114.639 194.85 116.609C196.81 118.578 201.543 124.475 204.698 126.826C207.854 129.178 190.942 113.803 189.759 114.591C188.575 115.379 190.954 118.912 194.085 122.064C197.217 125.215 205.117 129.142 209.838 131.505C214.559 133.869 228.351 136.614 228.351 136.614Z" fill="#F79D8D"/>
<path d="M229.331 140.744C229.331 140.744 245.287 199.472 244.402 208.783C243.518 218.093 227.562 218.046 225.196 210.967C222.829 203.889 221.108 149.589 218.718 141.329C216.328 133.069 196.87 128.354 196.87 128.354C196.87 128.354 185.062 118.327 186.245 117.731C187.428 117.134 192.149 117.731 196.284 121.312C200.42 124.893 202.189 126.086 211.045 126.623C219.901 127.16 226.403 126.623 228.769 131.923C231.136 137.223 229.331 140.744 229.331 140.744Z" fill="#F9B4AB"/>
<path d="M262.999 154.901C262.999 154.901 258.219 154.304 252.362 164.331C246.506 174.358 223.427 207.398 233.466 213.271C243.506 219.144 251.179 212.077 254.131 206.193C257.083 200.308 281.31 171.982 279.529 164.307C279.151 162.554 278.407 160.901 277.345 159.454C276.284 158.008 274.929 156.802 273.369 155.914C271.809 155.026 270.079 154.477 268.292 154.303C266.506 154.128 264.702 154.332 262.999 154.901Z" fill="#F3706B"/>
<path d="M159.294 404.65L156.569 408.685C156.569 408.685 143.075 426.65 143.075 429.801C143.075 432.952 162.867 419.464 164.672 417.22C165.791 415.767 166.56 414.076 166.919 412.278L168.269 406.883L159.294 404.65Z" fill="#030229"/>
<path d="M206.539 407.336L208.344 412.278C208.344 412.278 209.694 428.452 213.734 432.498C217.786 435.638 220.033 413.627 218.24 409.127C217.426 407.434 216.524 405.784 215.539 404.185L206.539 407.336Z" fill="#030229"/>
<path d="M265.485 264.885C265.485 264.885 216.889 264.885 178.237 289.152C158.445 307.128 200.743 407.324 204.34 409.127C208.834 410.929 215.587 407.778 218.288 404.185C220.081 400.604 208.834 335.884 209.742 318.802L279.923 296.338L265.485 264.885Z" fill="#413CDF"/>
<path d="M170.994 409.58C168.293 410.475 160.238 409.58 157.501 404.185C154.764 398.789 188.994 317.048 206.993 298.14C224.993 279.233 259.187 264.885 259.187 264.885L268.115 238.851L317.727 234.136C317.727 234.136 334.77 274.721 326.678 291.85C326.678 291.85 324.874 310.721 294.277 312.512C263.681 314.302 240.279 317.907 232.188 322.407C224.096 326.907 170.994 409.58 170.994 409.58Z" fill="#605BFF"/>
<path d="M270.613 149.363C267.232 150.361 264.134 152.14 261.57 154.556C259.006 156.972 257.047 159.956 255.852 163.269C255.745 163.567 255.625 163.854 255.518 164.14C253.94 168.067 245.275 179.873 251.573 189.302C257.872 198.732 261.027 201.896 261.027 216.828C261.027 231.761 258.637 232.561 261.027 237.288C264.959 242.062 287.011 250.657 323.177 236.5C328.902 234.256 316.089 215.265 319.245 198.744C322.4 182.224 328.687 163.352 322.388 155.486C317.057 148.754 294.337 142.595 270.613 149.363Z" fill="#F3706B"/>
<path d="M318.515 153.123C318.515 153.123 325.603 153.719 335.045 166.694C344.487 179.67 362.223 199.723 363.992 206.801C365.187 213.88 353.953 218.607 344.499 213.295C335.045 207.983 317.918 187.93 311.428 180.243C304.938 172.555 305.524 150.174 318.515 153.123Z" fill="#F3706B"/>
<path d="M353.773 199.341C353.773 199.341 363.849 200.045 364.267 208.89C364.685 217.735 357.634 218.643 340.997 217.055C324.36 215.467 296.536 214.417 291.194 214.083C285.851 213.749 283.724 218.559 277.15 217.103C270.577 215.646 269.896 213.892 266.955 214.035C264.015 214.178 257.764 219.777 254.753 218.738C251.741 217.7 261.553 212.519 267.314 209.296C273.075 206.073 285.373 203.507 290.154 204.522C294.935 205.536 327.204 200.63 338.427 200.105L353.773 199.341Z" fill="#F9B4AB"/>
<path d="M265.952 151.356C265.952 151.356 258.864 164.928 276.577 170.24C294.289 175.551 316.448 158.148 315.85 150.771C308.273 147.226 281.011 143.096 265.952 151.356Z" fill="#F79D8D"/>
<path d="M262.605 118.912C262.605 118.912 258.661 128.354 261.41 132.281C264.159 136.208 274.796 135.039 277.162 137.796C279.529 140.553 280.306 146.832 275.585 149.983C273.194 153.123 293.297 153.91 297.241 149.589C296.847 147.202 290.548 138.19 291.337 132.675C292.126 127.16 294.48 117.349 295.269 109.088C296.058 100.828 286.604 96.8893 281.094 96.1134C275.585 95.3375 267.708 96.4954 265.736 103.192C263.764 109.888 259.832 116.167 258.649 117.349C257.466 118.53 262.605 118.912 262.605 118.912Z" fill="#F79D8D"/>
<path d="M277.174 99.2528C277.174 99.2528 274.413 102.834 278.369 109.876C282.326 116.919 287.023 124.427 282.696 134.251C288.098 134.598 293.506 133.676 298.487 131.56C303.469 129.443 307.884 126.191 311.38 122.064C310.185 117.731 304.687 100.828 293.656 93.75C282.624 86.6716 270.828 90.9926 266.489 94.9436C262.151 98.8947 253.593 109.733 254.382 120.01C254.43 123.09 259.151 93.4038 277.174 99.2528Z" fill="#030229"/>
<path d="M277.461 147.226C277.749 149.269 278.514 151.215 279.696 152.908C280.877 154.6 282.442 155.99 284.262 156.966C287.501 157.551 294.301 151.069 296.07 146.044" stroke="#25215A" stroke-width="0.494165" stroke-miterlimit="10"/>
<path d="M284.262 161.096C285.569 161.096 286.628 160.038 286.628 158.733C286.628 157.427 285.569 156.369 284.262 156.369C282.955 156.369 281.895 157.427 281.895 158.733C281.895 160.038 282.955 161.096 284.262 161.096Z" fill="white"/>
<path d="M176.911 198.195H127.394V206.801H176.911V198.195Z" fill="white"/>
<path d="M178.763 198.195V196.715H78.3919V206.801H127.394V198.195H178.763Z" fill="#25215A"/>
<path d="M181.954 192.86H132.438V196.715H181.954V192.86Z" fill="white"/>
<path d="M183.819 192.859V191.379H83.4475V196.715H132.438V192.859H183.819Z" fill="#516AB2"/>
<path d="M184.118 206.801H83.7463V216.888H184.118V206.801Z" fill="#F15C62"/>
<path d="M184.105 208.282H132.737V216.888H184.105V208.282Z" fill="white"/>
<path d="M119.004 200.642H106.981V203.316H119.004V200.642Z" fill="#F58D76"/>
<path d="M121.454 200.642H119.972V203.316H121.454V200.642Z" fill="#4C54A4"/>
<path d="M172.464 81.5627C172.464 82.1143 172.3 82.6534 171.993 83.1115C171.685 83.5696 171.248 83.9261 170.737 84.1355C170.226 84.3449 169.664 84.3978 169.123 84.2876C168.582 84.1773 168.086 83.9089 167.698 83.5163C167.31 83.1238 167.047 82.6249 166.944 82.083C166.841 81.5412 166.901 80.9809 167.117 80.4733C167.334 79.9658 167.696 79.5339 168.159 79.2327C168.621 78.9314 169.163 78.7744 169.716 78.7815C170.448 78.7909 171.147 79.0881 171.662 79.6086C172.176 80.1292 172.464 80.8312 172.464 81.5627Z" fill="#D5E7F7"/>
<path d="M166.823 107.501H127.932C126.539 107.501 125.41 108.629 125.41 110.02V132.186C125.41 133.577 126.539 134.704 127.932 134.704H166.823C168.216 134.704 169.345 133.577 169.345 132.186V110.02C169.345 108.629 168.216 107.501 166.823 107.501Z" fill="#D5E7F7"/>
<path d="M168.425 108.098L147.808 125.477L126.821 107.764C126.557 107.892 126.318 108.066 126.115 108.277L139.466 119.545L125.41 131.41V132.174C125.404 132.277 125.404 132.381 125.41 132.484L140.099 120.094L147.784 126.588L155.481 120.094L169.309 131.768V130.658L156.162 119.545L168.975 108.73C168.828 108.49 168.642 108.277 168.425 108.098Z" fill="#7B9ED2"/>
<path d="M306.253 60.7453H279.875C278.931 60.7453 278.166 61.5095 278.166 62.4522V77.4923C278.166 78.4351 278.931 79.1993 279.875 79.1993H306.253C307.197 79.1993 307.962 78.4351 307.962 77.4923V62.4522C307.962 61.5095 307.197 60.7453 306.253 60.7453Z" fill="#D5E7F7"/>
<path d="M307.341 61.1512L293.357 72.9445L279.122 60.9363C278.942 61.0196 278.78 61.1372 278.644 61.2825L287.692 68.9219L278.13 76.9672V77.4924C278.13 77.564 278.13 77.6237 278.13 77.6953L288.098 69.3397L293.309 73.7443L298.52 69.3397L307.902 77.2536V76.5136L298.974 68.9696L307.663 61.6406C307.582 61.4615 307.473 61.2963 307.341 61.1512Z" fill="#7B9ED2"/>
<path d="M307.484 217.246H245.012V214.62H304.878C305.224 214.618 305.567 214.685 305.887 214.817C306.206 214.948 306.497 215.141 306.741 215.385C306.986 215.63 307.179 215.92 307.311 216.239C307.443 216.558 307.509 216.901 307.508 217.246H307.484Z" fill="#C4DFF4"/>
<path d="M252.996 216.757H156.569L148.382 161.144C148.323 160.744 148.352 160.337 148.465 159.95C148.578 159.562 148.773 159.203 149.037 158.898C149.301 158.592 149.628 158.347 149.996 158.178C150.363 158.01 150.762 157.922 151.166 157.921H241.928C242.603 157.919 243.257 158.159 243.77 158.597C244.283 159.035 244.622 159.642 244.725 160.308L252.996 216.757Z" fill="#C4DFF4"/>
<path d="M251.143 216.757H154.68L146.529 161.144C146.471 160.743 146.499 160.335 146.613 159.947C146.727 159.558 146.923 159.199 147.189 158.893C147.454 158.587 147.782 158.342 148.151 158.174C148.52 158.007 148.921 157.92 149.326 157.921H240.088C240.762 157.921 241.414 158.162 241.927 158.6C242.44 159.037 242.779 159.643 242.884 160.308L251.143 216.757Z" fill="black"/>
<path d="M201.663 190.663C201.758 191.542 201.662 192.43 201.383 193.269C201.103 194.107 200.647 194.876 200.043 195.523C199.44 196.169 198.705 196.678 197.887 197.016C197.069 197.354 196.189 197.511 195.304 197.479C193.41 197.48 191.578 196.797 190.148 195.555C188.718 194.313 187.786 192.597 187.524 190.723C187.429 189.845 187.524 188.957 187.804 188.119C188.083 187.281 188.54 186.513 189.143 185.867C189.747 185.222 190.482 184.713 191.3 184.377C192.118 184.041 192.998 183.885 193.882 183.919C195.775 183.918 197.605 184.599 199.035 185.839C200.464 187.078 201.398 188.791 201.663 190.663Z" fill="#D5E7F7"/>
<path d="M435.524 230.078L473.746 426.196H469.491L427.038 229.015L435.524 230.078Z" fill="#D5E7F7"/>
<path d="M410.724 230.078L448.933 426.196H444.691L402.226 229.015L410.724 230.078Z" fill="#7B9ED2"/>
<path d="M47.09 230.078L8.88013 426.196H13.123L55.5878 229.015L47.09 230.078Z" fill="#D5E7F7"/>
<path d="M71.902 230.078L33.6801 426.196H37.923L80.3877 229.015L71.902 230.078Z" fill="#7B9ED2"/>
<path d="M453.069 232.191H29.5448C26.5895 232.191 23.755 231.019 21.6641 228.933C19.5732 226.847 18.397 224.017 18.3938 221.066H464.196C464.193 224.013 463.02 226.839 460.934 228.924C458.848 231.01 456.02 232.184 453.069 232.191Z" fill="#F89821"/>
<path d="M474.797 216.052H7.81653V222.343H474.797V216.052Z" fill="#234088"/>
<path d="M444.511 212.901H367.339V216.828H444.511V212.901Z" fill="#171142"/>
<path d="M443.723 153.516C443.723 154.916 443.307 156.285 442.528 157.449C441.749 158.613 440.642 159.52 439.347 160.056C438.052 160.592 436.627 160.732 435.252 160.459C433.878 160.186 432.615 159.512 431.624 158.522C430.632 157.532 429.957 156.27 429.684 154.897C429.41 153.524 429.551 152.101 430.087 150.808C430.624 149.514 431.532 148.409 432.698 147.631C433.863 146.853 435.233 146.438 436.635 146.438C437.566 146.436 438.489 146.618 439.349 146.974C440.21 147.329 440.992 147.85 441.65 148.508C442.309 149.165 442.831 149.946 443.186 150.806C443.542 151.665 443.724 152.586 443.723 153.516Z" fill="#D5E7F7"/>
<path d="M440.579 153.516C440.582 154.296 440.352 155.059 439.92 155.708C439.488 156.357 438.873 156.864 438.153 157.164C437.432 157.464 436.639 157.544 435.873 157.393C435.107 157.243 434.403 156.868 433.85 156.318C433.298 155.768 432.921 155.066 432.768 154.301C432.615 153.537 432.692 152.744 432.99 152.024C433.288 151.303 433.794 150.687 434.443 150.254C435.092 149.821 435.855 149.589 436.635 149.589C437.679 149.589 438.681 150.003 439.42 150.739C440.159 151.475 440.576 152.474 440.579 153.516Z" fill="white"/>
<path d="M182.294 52.5282C186.882 33.384 175.062 14.1501 155.893 9.56817C136.724 4.98618 117.466 16.7912 112.878 35.9354C108.29 55.0796 120.11 74.3135 139.279 78.8955C158.448 83.4774 177.706 71.6724 182.294 52.5282Z" fill="#D5E7F7"/>
<path d="M159.843 76.1555C145.417 61.748 127.777 62.679 118.323 64.6008C122.919 71.1928 129.612 76.0394 137.315 78.3536C145.017 80.6679 153.276 80.3139 160.752 77.3491C160.453 76.9552 160.154 76.5613 159.843 76.1555Z" fill="#5679BC"/>
<path d="M162.449 48.558C162.449 48.558 164.278 56.1497 161.72 58.7758C159.162 61.4018 151.31 59.2532 149.194 61.0437C147.079 62.8342 145.728 67.4775 148.908 70.4139C150.318 73.0639 135.079 71.2495 132.641 67.5134C133.215 65.7826 139.059 59.7307 139.131 55.4813C139.203 51.2318 138.593 43.5447 138.999 37.2302C139.406 30.9158 146.995 29.0775 151.25 29.1492C155.505 29.2208 161.29 31.059 162.007 36.3111C162.507 40.333 163.721 44.2337 165.592 47.8299C166.345 48.94 162.449 48.558 162.449 48.558Z" fill="#F79D8D"/>
<path d="M137.541 29.1969C137.541 29.1969 131.565 32.9092 133.275 39.2236C134.564 43.4695 136.644 47.4342 139.406 50.9095L145.167 48.8684C145.167 48.8684 141.258 43.3059 142.776 40.8947C144.294 38.4835 146.864 39.4027 147.784 41.4438C148.362 42.9665 148.618 44.5921 148.537 46.2185L150.76 45.4784C150.76 45.4784 151.883 38.4239 150.019 35.0816C148.155 31.7394 147.234 31.5603 147.234 31.5603C147.234 31.5603 149.087 34.5325 153.736 33.0405C158.385 31.5484 159.867 34.9026 163.035 35.4278C166.202 35.953 167.493 32.8256 167.493 32.8256C166.927 32.9777 166.336 33.0063 165.758 32.9095C165.181 32.8127 164.631 32.5927 164.146 32.2646C162.473 31.1545 161.361 26.1411 157.083 23.7299C152.804 21.3187 140.517 19.5402 137.541 29.1969Z" fill="#234088"/>
<path d="M123.51 8.23626H99.6063C98.5095 8.23626 97.4577 8.67139 96.6822 9.44593C95.9066 10.2205 95.4709 11.271 95.4709 12.3663V44.0222C95.4709 45.1175 95.9066 46.168 96.6822 46.9426C97.4577 47.7171 98.5095 48.1522 99.6063 48.1522H112.466C113.375 49.4891 115.55 52.3778 117.988 53.4282V48.1522H123.51C124.052 48.1522 124.59 48.0453 125.091 47.8376C125.592 47.6299 126.047 47.3255 126.43 46.9418C126.813 46.5582 127.116 46.1028 127.323 45.6018C127.529 45.1007 127.635 44.564 127.633 44.0222V12.3663C127.635 11.8245 127.529 11.2877 127.323 10.7867C127.116 10.2857 126.813 9.83032 126.43 9.44665C126.047 9.06298 125.592 8.75858 125.091 8.55087C124.59 8.34317 124.052 8.23626 123.51 8.23626Z" fill="#7B9ED2"/>
<path d="M106.108 17.0574L123.056 17.0574V15.5892L106.108 15.5892V17.0574Z" fill="white"/>
<path d="M114.594 21.7007H123.044V20.2325H114.594V21.7007Z" fill="white"/>
<path d="M112.18 26.2366H123.056V24.7684H112.18V26.2366Z" fill="white"/>
<path d="M99.929 31.5484L123.044 31.5484V30.0802L99.929 30.0802V31.5484Z" fill="white"/>
<path d="M111.51 36.2037H123.044V34.7355H111.51V36.2037Z" fill="white"/>
<path d="M108.212 40.7276H123.044V39.2594H108.212V40.7276Z" fill="white"/>
<path d="M369.502 80.9659H326.977V137.593H369.502V80.9659Z" fill="#7B9ED2"/>
<path d="M365.175 77.0388H322.651V133.666H365.175V77.0388Z" fill="#D5E7F7"/>
<path d="M346.423 92.6518H329.475V94.12H346.423V92.6518Z" fill="white"/>
<path d="M337.925 97.3071H329.475V98.7753H337.925V97.3071Z" fill="white"/>
<path d="M340.351 101.843H329.475V103.311H340.351V101.843Z" fill="white"/>
<path d="M352.59 107.167H329.475V108.635H352.59V107.167Z" fill="white"/>
<path d="M341.009 111.81H329.475V113.278H341.009V111.81Z" fill="white"/>
<path d="M344.307 116.346H329.475V117.814H344.307V116.346Z" fill="white"/>
<path d="M147.82 91.1956H95.2558V97.0922H147.82V91.1956Z" stroke="#7B9ED2" stroke-width="0.98833" stroke-miterlimit="10"/>
<path d="M328.543 54.025H310.831V58.1551H328.543V54.025Z" stroke="#7B9ED2" stroke-width="0.98833" stroke-miterlimit="10"/>
<path d="M301.388 31.62C301.388 32.0922 301.248 32.5538 300.986 32.9463C300.723 33.3389 300.35 33.6449 299.913 33.8256C299.476 34.0063 298.995 34.0536 298.532 33.9615C298.068 33.8694 297.642 33.642 297.308 33.3081C296.974 32.9742 296.746 32.5489 296.654 32.0858C296.561 31.6227 296.609 31.1427 296.79 30.7064C296.971 30.2702 297.277 29.8974 297.67 29.635C298.063 29.3727 298.525 29.2327 298.998 29.2327C299.632 29.2327 300.24 29.4842 300.688 29.9319C301.137 30.3796 301.388 30.9869 301.388 31.62Z" stroke="#7B9ED2" stroke-width="0.98833" stroke-miterlimit="10"/>
<path d="M312.014 31.62C312.014 32.0922 311.874 32.5538 311.611 32.9463C311.348 33.3389 310.975 33.6449 310.538 33.8256C310.101 34.0063 309.621 34.0536 309.157 33.9615C308.693 33.8694 308.267 33.642 307.933 33.3081C307.599 32.9742 307.371 32.5489 307.279 32.0858C307.187 31.6227 307.234 31.1427 307.415 30.7064C307.596 30.2702 307.902 29.8974 308.295 29.635C308.688 29.3727 309.151 29.2327 309.623 29.2327C310.257 29.2327 310.865 29.4842 311.314 29.9319C311.762 30.3796 312.014 30.9869 312.014 31.62Z" stroke="#7B9ED2" stroke-width="0.98833" stroke-miterlimit="10"/>
<path d="M322.699 31.62C322.699 32.0922 322.558 32.5538 322.296 32.9463C322.033 33.3389 321.66 33.6449 321.223 33.8256C320.786 34.0063 320.306 34.0536 319.842 33.9615C319.378 33.8694 318.952 33.642 318.618 33.3081C318.284 32.9742 318.056 32.5489 317.964 32.0858C317.872 31.6227 317.919 31.1427 318.1 30.7064C318.281 30.2702 318.587 29.8974 318.98 29.635C319.373 29.3727 319.835 29.2327 320.308 29.2327C320.942 29.2327 321.55 29.4842 321.998 29.9319C322.447 30.3796 322.699 30.9869 322.699 31.62Z" stroke="#7B9ED2" stroke-width="0.98833" stroke-miterlimit="10"/>
<path d="M89.3517 77.2297C89.3517 77.5414 89.2591 77.846 89.0858 78.1051C88.9124 78.3642 88.666 78.5662 88.3778 78.6854C88.0895 78.8047 87.7723 78.8359 87.4663 78.7751C87.1602 78.7143 86.8791 78.5642 86.6585 78.3439C86.4379 78.1235 86.2876 77.8428 86.2267 77.5371C86.1659 77.2315 86.1971 76.9147 86.3165 76.6268C86.4359 76.3388 86.6381 76.0928 86.8976 75.9196C87.157 75.7465 87.462 75.6541 87.774 75.6541C88.1924 75.6541 88.5937 75.8201 88.8896 76.1156C89.1854 76.4111 89.3517 76.8118 89.3517 77.2297Z" fill="#5679BC"/>
<path d="M99.5943 77.2298C99.5943 77.5409 99.502 77.845 99.3292 78.1039C99.1564 78.3627 98.9107 78.5647 98.6231 78.6843C98.3355 78.8039 98.0189 78.8358 97.7132 78.7759C97.4075 78.7161 97.1264 78.5672 96.9053 78.3481C96.6842 78.1289 96.533 77.8493 96.4708 77.5444C96.4086 77.2396 96.4381 76.9231 96.5557 76.635C96.6733 76.3469 96.8736 76.1 97.1315 75.9255C97.3894 75.7509 97.6932 75.6565 98.0047 75.6541C98.2129 75.6526 98.4193 75.6921 98.6121 75.7706C98.8049 75.8491 98.9802 75.9649 99.128 76.1114C99.2758 76.2579 99.393 76.4321 99.4731 76.624C99.5531 76.816 99.5943 77.0218 99.5943 77.2298Z" fill="#5679BC"/>
<path d="M109.825 77.2298C109.825 77.5419 109.732 77.847 109.558 78.1064C109.384 78.3657 109.137 78.5677 108.848 78.6866C108.559 78.8055 108.242 78.836 107.935 78.7742C107.629 78.7124 107.348 78.5612 107.128 78.3396C106.907 78.1181 106.758 77.8362 106.699 77.5298C106.639 77.2233 106.672 76.9062 106.793 76.6185C106.915 76.3308 107.119 76.0855 107.38 75.9139C107.641 75.7422 107.947 75.6518 108.259 75.6541C108.676 75.6573 109.074 75.8247 109.367 76.1198C109.661 76.415 109.825 76.8139 109.825 77.2298Z" fill="#5679BC"/>
<ellipse cx="369.541" cy="75.6335" rx="19.8447" ry="19.8471" fill="#7B9ED2"/>
<path fill-rule="evenodd" clip-rule="evenodd" d="M368.468 77.2427C367.999 77.2427 367.619 76.8823 367.619 76.4381C367.619 75.994 367.999 75.6335 368.468 75.6335C368.937 75.6335 369.317 75.994 369.317 76.4381C369.317 76.8823 368.937 77.2427 368.468 77.2427ZM368.468 74.0243C367.064 74.0243 365.92 75.1073 365.92 76.4381C365.92 77.7689 367.064 78.8519 368.468 78.8519C369.873 78.8519 371.016 77.7689 371.016 76.4381C371.016 75.1073 369.873 74.0243 368.468 74.0243ZM373.563 79.6566C373.563 80.1007 373.183 80.4612 372.714 80.4612H364.222C363.753 80.4612 363.373 80.1007 363.373 79.6566V73.2197C363.373 72.7755 363.753 72.415 364.222 72.415H365.071H366.77H370.167H371.865H372.714C373.183 72.415 373.563 72.7755 373.563 73.2197V79.6566ZM366.77 69.2859C366.77 68.3493 367.531 67.5874 368.468 67.5874C369.405 67.5874 370.167 68.3493 370.167 69.2859V70.8058H366.77V69.2859ZM372.714 70.8058H371.865V69.2859C371.865 67.4627 370.341 65.9782 368.468 65.9782C366.595 65.9782 365.071 67.4627 365.071 69.2859V70.8058H364.222C362.817 70.8058 361.674 71.8888 361.674 73.2197V79.6566C361.674 80.9874 362.817 82.0704 364.222 82.0704H372.714C374.119 82.0704 375.262 80.9874 375.262 79.6566V73.2197C375.262 71.8888 374.119 70.8058 372.714 70.8058Z" fill="#231F20"/>
<mask id="mask0_178_3641" style="mask-type:alpha" maskUnits="userSpaceOnUse" x="361" y="65" width="15" height="18">
<path fill-rule="evenodd" clip-rule="evenodd" d="M368.468 77.2427C367.999 77.2427 367.619 76.8823 367.619 76.4381C367.619 75.994 367.999 75.6335 368.468 75.6335C368.937 75.6335 369.317 75.994 369.317 76.4381C369.317 76.8823 368.937 77.2427 368.468 77.2427ZM368.468 74.0243C367.064 74.0243 365.92 75.1073 365.92 76.4381C365.92 77.7689 367.064 78.8519 368.468 78.8519C369.873 78.8519 371.016 77.7689 371.016 76.4381C371.016 75.1073 369.873 74.0243 368.468 74.0243ZM373.563 79.6566C373.563 80.1007 373.183 80.4612 372.714 80.4612H364.222C363.753 80.4612 363.373 80.1007 363.373 79.6566V73.2197C363.373 72.7755 363.753 72.415 364.222 72.415H365.071H366.77H370.167H371.865H372.714C373.183 72.415 373.563 72.7755 373.563 73.2197V79.6566ZM366.77 69.2859C366.77 68.3493 367.531 67.5874 368.468 67.5874C369.405 67.5874 370.167 68.3493 370.167 69.2859V70.8058H366.77V69.2859ZM372.714 70.8058H371.865V69.2859C371.865 67.4627 370.341 65.9782 368.468 65.9782C366.595 65.9782 365.071 67.4627 365.071 69.2859V70.8058H364.222C362.817 70.8058 361.674 71.8888 361.674 73.2197V79.6566C361.674 80.9874 362.817 82.0704 364.222 82.0704H372.714C374.119 82.0704 375.262 80.9874 375.262 79.6566V73.2197C375.262 71.8888 374.119 70.8058 372.714 70.8058Z" fill="white"/>
</mask>
<g mask="url(#mask0_178_3641)">
<rect x="358.278" y="64.3689" width="20.381" height="19.3107" fill="#DEE7F4"/>
</g>
</svg>
