<svg width="25" height="25" viewBox="0 0 25 25" fill="none" xmlns="http://www.w3.org/2000/svg">
<path d="M12.5 2.08334C10.4398 2.08334 8.42582 2.69427 6.71281 3.83887C4.9998 4.98347 3.66467 6.61033 2.87625 8.51372C2.08784 10.4171 1.88156 12.5116 2.28349 14.5322C2.68542 16.5528 3.67751 18.4089 5.1343 19.8657C6.5911 21.3225 8.44717 22.3146 10.4678 22.7165C12.4884 23.1185 14.5829 22.9122 16.4863 22.1238C18.3897 21.3353 20.0165 20.0002 21.1611 18.2872C22.3057 16.5742 22.9167 14.5602 22.9167 12.5C22.9167 11.1321 22.6472 9.77753 22.1237 8.51372C21.6003 7.24992 20.833 6.10159 19.8657 5.13431C18.8984 4.16704 17.7501 3.39975 16.4863 2.87627C15.2225 2.35278 13.8679 2.08334 12.5 2.08334ZM12.5 20.8333C10.8518 20.8333 9.24066 20.3446 7.87025 19.4289C6.49984 18.5132 5.43173 17.2118 4.801 15.689C4.17027 14.1663 4.00525 12.4908 4.32679 10.8743C4.64833 9.25775 5.44201 7.77289 6.60744 6.60745C7.77288 5.44202 9.25774 4.64834 10.8742 4.3268C12.4908 4.00526 14.1663 4.17028 15.689 4.80101C17.2117 5.43174 18.5132 6.49985 19.4289 7.87026C20.3446 9.24067 20.8333 10.8518 20.8333 12.5C20.8333 14.7101 19.9554 16.8298 18.3926 18.3926C16.8298 19.9554 14.7101 20.8333 12.5 20.8333Z" fill="white"/>
<path d="M15.3125 8.73959L11.375 13.9479L9.67708 11.75C9.50718 11.5318 9.25753 11.3899 8.98306 11.3558C8.7086 11.3216 8.43179 11.3978 8.21354 11.5677C7.99529 11.7376 7.85347 11.9873 7.81928 12.2617C7.7851 12.5362 7.86134 12.813 8.03125 13.0313L10.5625 16.2708C10.6606 16.395 10.7857 16.4952 10.9283 16.5637C11.0709 16.6323 11.2272 16.6675 11.3854 16.6667C11.5445 16.6663 11.7014 16.6295 11.844 16.5591C11.9867 16.4886 12.1113 16.3865 12.2083 16.2604L16.9687 10.0104C17.1373 9.78941 17.2111 9.51051 17.174 9.23506C17.1369 8.95962 16.9918 8.7102 16.7708 8.54168C16.5498 8.37315 16.2709 8.29933 15.9955 8.33645C15.72 8.37356 15.4706 8.51858 15.3021 8.73959H15.3125Z" fill="white"/>
</svg>
