<svg width="375" height="276" viewBox="0 0 375 276" fill="none" xmlns="http://www.w3.org/2000/svg">
<g clip-path="url(#clip0_2844_3120)">
<path d="M185.269 273.278C251.947 273.278 306 219.266 306 152.639C306 86.0118 251.947 32 185.269 32C118.59 32 64.5371 86.0118 64.5371 152.639C64.5371 219.266 118.59 273.278 185.269 273.278Z" fill="#D5E7F7"/>
<path d="M172.849 103.694C172.849 103.694 175.752 102.333 174.154 85.1649C174.287 66.9439 172.928 57.0145 188.034 55.1125C201.371 55.6564 205.725 62.1827 205.996 65.853L206.269 69.5265C206.269 69.5265 204.952 87.1113 205.133 87.6552C205.314 88.1991 205.499 95.9976 205.499 95.9976C205.499 95.9976 205.77 102.161 204.681 103.974C203.593 105.787 201.96 108.144 200.779 108.688C199.598 109.232 198.057 110.049 198.057 110.049C198.057 110.049 200.505 117.924 199.442 121.922C198.716 124.651 171.942 122.284 172.849 103.694Z" fill="#F79D8D"/>
<path d="M133.043 264.127C147.028 270.866 162.193 274.819 177.69 275.768C175.124 224.142 172.573 172.481 170.035 120.783L169.974 119.565C169.974 119.565 167.794 115.936 168.036 112.31C168.194 110.201 168.031 108.08 167.552 106.019C167.552 106.019 135.847 127.786 135.121 128.995C134.396 130.204 134.498 261.23 133.043 264.127Z" fill="#F3706B"/>
<path d="M41.3305 233.114C41.3305 233.114 41.2796 233.611 38.6091 236.015C37.2882 237.204 36.0628 238.496 32.8003 239.914C31.4252 240.512 27.2524 243.877 26.6286 244.723C25.244 246.587 24.4801 247.318 21.2176 251.672C18.8718 254.799 12.8688 257.175 16.5578 251.523C17.6882 249.863 18.9281 248.28 20.2691 246.784C21.1645 245.751 22.0855 244.74 23.0319 243.75C23.5348 243.225 24.0472 242.704 24.5628 242.188C25.0785 241.673 25.8137 241.174 26.183 240.579C24.8843 240.719 23.608 242.312 22.6627 243.123C21.0203 244.539 19.4352 246.018 17.8501 247.497C16.37 248.88 15.03 250.407 13.5054 251.739C12.7542 252.375 10.714 254.373 9.57128 253.609C7.93526 252.522 15.4692 241.457 21.2781 239.463C19.4383 240.099 17.8469 241.342 16.2268 242.382C14.1593 243.674 12.2383 245.186 10.4975 246.892C9.29754 248.098 7.49284 250.836 5.51624 249.418C4.48816 248.68 3.96297 246.8 4.94013 245.811C6.39473 244.357 7.8907 242.948 9.39623 241.546C11.1055 239.956 12.8179 238.324 14.6958 236.937C14.9696 236.693 15.2842 236.498 15.6252 236.362C15.4979 237.109 13.9287 237.634 13.3972 237.977C10.9304 239.568 8.40634 241.234 5.71995 242.497C4.54864 243.047 3.14178 243.788 1.83997 243.931C1.55052 243.972 1.25546 243.932 0.987179 243.816C0.718898 243.7 0.487757 243.513 0.319084 243.274C0.150411 243.036 0.0507298 242.755 0.0309811 242.464C0.0112323 242.172 0.0721765 241.881 0.207126 241.622C0.862808 240.35 2.49247 239.488 3.74972 238.963C6.53796 237.799 9.50443 237.278 12.1685 235.783C14.7109 234.41 16.9251 232.502 18.6585 230.192C17.6082 231.117 16.5292 232.008 15.4438 232.892C14.021 234.053 12.49 235.538 10.7935 236.298C10.6439 236.365 10.3893 236.53 10.2142 236.454C9.39941 236.091 4.76824 233.824 17.6591 222.94C17.6591 222.94 24.4642 216.681 35.8018 219.403C50.039 222.835 41.3305 233.114 41.3305 233.114Z" fill="#F79D8D"/>
<path d="M148.499 169.705C148.499 169.705 138.82 223.398 107.353 231.136C75.887 238.874 42.9724 235.974 42.9724 235.974C42.9724 235.974 32.3223 224.365 34.2575 215.173C36.1927 205.982 87.5078 202.598 92.8233 192.91C98.1388 183.222 135.907 128.095 135.907 128.095C135.907 128.095 153.824 146.488 148.499 169.705Z" fill="#F3706B"/>
<path d="M205.607 76.8638C213.8 76.374 296.562 66.1234 296.562 66.1234C296.562 66.1234 298.539 90.9311 296.422 90.7753C294.306 90.6194 205.607 80.5246 205.607 80.5246C204.413 80.0984 203.716 79.3382 203.805 78.5495C203.93 77.4745 205.461 76.9147 205.607 76.8638Z" fill="#231F20"/>
<path d="M290.865 78.2696C290.865 85.2476 293.949 90.9057 297.753 90.9057C301.557 90.9057 304.641 85.2476 304.641 78.2696C304.641 71.2916 301.557 65.6304 297.753 65.6304C297.279 65.6318 296.809 65.7191 296.365 65.888C293.227 67.068 290.865 72.1631 290.865 78.2696Z" fill="#9A9AA9"/>
<path d="M297.734 88.1482C300.631 88.1482 302.979 83.6684 302.979 78.1424C302.979 72.6163 300.631 68.1366 297.734 68.1366C294.837 68.1366 292.488 72.6163 292.488 78.1424C292.488 83.6684 294.837 88.1482 297.734 88.1482Z" fill="white"/>
<path d="M262.244 91.8439C262.244 91.8439 262.734 87.916 264.526 77.1851C266.722 64.037 260.815 60.389 248.876 71.174C236.937 81.959 253.52 96.2997 253.52 96.2997L262.244 91.8439Z" fill="#F79D8D"/>
<path d="M225.644 166C225.644 166 243.621 200.41 266.293 199.847C316.15 198.638 267.248 98.2685 263.87 90.5303C263.387 91.9806 256.868 87.7474 248.624 90.1678C240.38 92.5881 253.31 142.436 250.439 139.147C228.266 113.703 226.477 114.479 226.477 114.479L225.644 166Z" fill="#F3706B"/>
<path d="M174.211 110.132C174.211 110.132 178.202 121.378 198.172 122.103C199.26 115.211 197.558 110.389 197.558 110.389L200.623 106.868C200.623 106.868 212.874 108.681 213.418 132.08C213.962 155.479 220.459 270.771 220.459 270.771C212.766 273.147 201.527 275.714 190.001 275.952C187.003 276.013 184.126 276.035 181.337 275.933C178.358 220.459 175.378 164.95 172.396 109.407L174.211 110.132Z" fill="#605BFF"/>
<path d="M176.509 121.499L170.035 120.783L177.69 275.768C178.492 275.819 179.308 275.861 180.138 275.895C181.287 275.943 182.417 275.971 183.518 275.987L176.509 121.499Z" fill="#413CDF"/>
<path d="M220.481 270.771C219.956 270.956 219.405 271.089 218.842 271.258C217.814 271.576 216.824 271.843 215.872 272.069L206.151 118.805L212.985 119.221L220.481 270.771Z" fill="#413CDF"/>
<path d="M195.146 102.635C195.146 102.635 233.388 110.373 233.872 123.919C234.356 137.465 240.114 262.865 240.114 262.865C237.568 264.029 234.817 265.444 231.033 266.961C227.602 268.338 225.237 269.378 220.482 270.778C220.482 270.778 213.285 125.061 213.056 121.973C212.642 116.369 210.032 111.945 195.146 102.635Z" fill="#F3706B"/>
<path d="M172.757 103.602L176.509 121.499C176.509 121.499 171.274 121.836 170.035 120.783C168.173 119.193 166.767 110.631 167.553 106.019C167.941 103.828 172.757 103.602 172.757 103.602Z" fill="#413CDF"/>
<path d="M212.616 119.234C209.293 105.335 203.195 105.793 200.168 104.871C197.466 104.051 192.529 103.599 196.536 106.868C200.544 110.138 206.158 118.84 206.158 118.84" fill="#413CDF"/>
<path d="M173.919 85.5593C173.919 85.5593 176.914 85.8328 177.277 85.7405C177.639 85.6483 175.007 79.7581 177.095 79.5768C179.183 79.3955 180.631 80.1207 180.278 84.5638C179.925 89.0069 180.552 99.5661 182.321 102.012C184.091 104.458 186.24 111.925 197.568 110.389C200.235 110.027 200.789 109.117 201.584 108.316C205.7 104.181 207.495 105.771 205.048 89.3663C204.322 88.5521 198.605 83.5651 191.075 93.0843C188.353 95.5301 183.362 95.8036 183.181 91.0901C182.999 86.3766 182.818 75.8588 182.818 75.8588C182.818 75.8588 186.176 68.0634 183.636 65.7067C181.096 63.35 175.644 62.4499 175.644 62.4499C175.644 62.4499 174.667 63.3627 174.164 71.139C173.954 74.4149 173.893 80.1556 173.919 85.5593Z" fill="#231F20"/>
<path d="M200.521 275.132L197.749 121.973L198.169 121.992L200.973 275.074L200.521 275.132Z" fill="#5AB8FD"/>
<path d="M174.259 69.6887C174.259 69.6887 174.11 59.3776 180.482 56.8809C187.239 54.2284 195.973 53.7736 203.615 60.2808C203.615 60.2808 205.484 62.4849 206.162 64.7589C206.308 65.2424 206.61 69.0494 206.61 69.0494C201.403 70.114 196.114 70.728 190.801 70.8845C188.751 70.945 186.781 70.9291 184.9 70.8591C181.335 70.7222 177.781 70.3685 174.259 69.8" fill="#234088"/>
<path d="M216.067 71.0372L187.624 70.7669C187.624 70.7669 197.221 70.8337 206.61 69.0653C215.659 68.9985 217.018 67.3669 217.836 68.4547C218.654 69.5424 216.067 71.0372 216.067 71.0372Z" fill="#234088"/>
</g>
<g clip-path="url(#clip1_2844_3120)">
<path d="M319.645 24.0253L321.845 54.5261L311.26 56.1086L305.627 26.115L319.645 24.0253ZM323.633 63.2896C323.766 64.0986 323.719 64.9269 323.496 65.7158C323.289 66.4715 322.947 67.1831 322.485 67.8158C322.021 68.448 321.44 68.9848 320.774 69.3965C320.089 69.8216 319.323 70.1006 318.526 70.216C317.718 70.3471 316.891 70.3052 316.101 70.093C314.572 69.6972 313.254 68.7272 312.421 67.3848C311.992 66.6885 311.71 65.9118 311.592 65.1023C311.35 63.4971 311.751 61.8613 312.709 60.5505C313.179 59.9196 313.761 59.3811 314.427 58.9622C315.113 58.5281 315.882 58.2415 316.685 58.1205C317.488 57.9995 318.308 58.0467 319.092 58.2592C319.85 58.4679 320.564 58.8127 321.199 59.2769C321.836 59.7513 322.378 60.3408 322.797 61.0148C323.227 61.7083 323.512 62.4824 323.633 63.2896Z" fill="#605BFF"/>
<path d="M348.627 58.0418L339.809 53.7647C340.417 52.1477 341.281 50.639 342.368 49.2964C343.169 48.3203 344.132 47.4894 345.215 46.84C346.104 46.3145 347.077 45.9462 348.092 45.7509C348.987 45.5822 349.892 45.4678 350.801 45.4082C351.657 45.3669 352.424 45.2909 353.104 45.1943C353.738 45.1128 354.329 44.8309 354.792 44.3895C355.086 44.1067 355.301 43.7521 355.417 43.3608C355.568 42.9026 355.58 42.41 355.453 41.9447C355.277 41.3511 354.963 40.8076 354.536 40.3587C353.925 39.7189 353.194 39.2057 352.385 38.848C351.636 38.4982 350.867 38.195 350.081 37.9403C349.113 37.6211 348.127 37.3588 347.128 37.1548C346.07 36.9351 345.001 36.7728 343.925 36.6686C342.921 36.5682 341.91 36.5568 340.905 36.6345L344.7 25.8503C345.531 25.7757 346.443 25.7293 347.434 25.6971C348.503 25.6828 349.572 25.7482 350.632 25.8926C351.838 26.0616 353.032 26.3101 354.206 26.6366C355.531 27.0181 356.821 27.5151 358.059 28.1221C360.121 29.1053 362.023 30.3947 363.699 31.9464C365.247 33.3752 366.513 35.0822 367.431 36.9785C368.296 38.8185 368.75 40.8248 368.761 42.8581C368.75 45.0776 368.222 47.264 367.219 49.2442C366.613 50.6317 365.714 51.8723 364.585 52.8814C363.709 53.6144 362.688 54.1558 361.59 54.4709C360.534 54.7625 359.444 54.9082 358.349 54.904C357.241 54.904 356.124 54.9476 355.017 55.0399C353.893 55.1435 352.786 55.3932 351.726 55.7828C350.529 56.2807 349.467 57.0548 348.627 58.0418ZM346.598 65.5579C346.248 66.2995 345.743 66.9574 345.117 67.4871C344.518 67.9969 343.828 68.3888 343.083 68.6423C342.346 68.9007 341.565 69.0142 340.785 68.9766C339.984 68.9332 339.201 68.723 338.486 68.3595C337.745 68.0146 337.088 67.5143 336.558 66.8926C336.043 66.3029 335.644 65.6207 335.384 64.8824C335.125 64.1425 335.013 63.3589 335.056 62.5761C335.1 61.7657 335.317 60.9741 335.692 60.2542C336.045 59.5186 336.544 58.8625 337.159 58.3263C337.747 57.7982 338.435 57.3936 339.182 57.1365C339.925 56.8802 340.708 56.7617 341.493 56.7869C342.306 56.8167 343.103 57.0145 343.835 57.3679C344.567 57.7213 345.217 58.2226 345.746 58.8402C346.252 59.4417 346.643 60.1308 346.901 60.8734C347.161 61.6251 347.276 62.4196 347.239 63.2142C347.191 64.0316 346.972 64.8299 346.598 65.5579Z" fill="#605BFF"/>
</g>
<defs>
<clipPath id="clip0_2844_3120">
<rect width="306" height="244" fill="white" transform="translate(0 32)"/>
</clipPath>
<clipPath id="clip1_2844_3120">
<rect width="62.58" height="60.4" fill="white" transform="translate(326.633 0.963242) rotate(39.8681)"/>
</clipPath>
</defs>
</svg>
