<svg width="315" height="41" viewBox="0 0 315 41" fill="none" xmlns="http://www.w3.org/2000/svg">
<rect x="1.48163" y="0.569855" width="313" height="39" rx="4.5" fill="#F04848" stroke="#F14141"/>
<path d="M101.594 26.0699C101.348 26.0699 101.151 26.0005 101.002 25.8619C100.863 25.7232 100.794 25.5365 100.794 25.3019V15.5419C100.794 15.2965 100.868 15.0992 101.018 14.9499C101.167 14.7899 101.364 14.7099 101.61 14.7099C101.866 14.7099 102.068 14.7845 102.218 14.9339C102.367 15.0832 102.442 15.2859 102.442 15.5419V24.6939H107.306C107.551 24.6939 107.738 24.7525 107.866 24.8699C108.004 24.9872 108.074 25.1579 108.074 25.3819C108.074 25.6059 108.004 25.7765 107.866 25.8939C107.738 26.0112 107.551 26.0699 107.306 26.0699H101.594ZM112.712 26.1819C111.944 26.1819 111.267 26.0165 110.68 25.6859C110.104 25.3552 109.656 24.8859 109.336 24.2779C109.027 23.6592 108.872 22.9445 108.872 22.1339C108.872 21.3125 109.027 20.5979 109.336 19.9899C109.656 19.3712 110.104 18.8965 110.68 18.5659C111.267 18.2352 111.944 18.0699 112.712 18.0699C113.48 18.0699 114.152 18.2352 114.728 18.5659C115.315 18.8965 115.763 19.3712 116.072 19.9899C116.392 20.5979 116.552 21.3125 116.552 22.1339C116.552 22.9445 116.392 23.6592 116.072 24.2779C115.763 24.8859 115.315 25.3552 114.728 25.6859C114.152 26.0165 113.48 26.1819 112.712 26.1819ZM112.712 24.9019C113.427 24.9019 113.971 24.6672 114.344 24.1979C114.728 23.7285 114.92 23.0405 114.92 22.1339C114.92 21.2379 114.728 20.5552 114.344 20.0859C113.96 19.6059 113.416 19.3659 112.712 19.3659C112.008 19.3659 111.464 19.6059 111.08 20.0859C110.696 20.5552 110.504 21.2379 110.504 22.1339C110.504 23.0405 110.691 23.7285 111.064 24.1979C111.448 24.6672 111.998 24.9019 112.712 24.9019ZM124.816 18.1019C125.061 18.1019 125.253 18.1765 125.392 18.3259C125.541 18.4645 125.616 18.6512 125.616 18.8859V25.4459C125.616 26.6405 125.296 27.5419 124.656 28.1499C124.026 28.7579 123.093 29.0619 121.856 29.0619C120.704 29.0619 119.744 28.8432 118.976 28.4059C118.581 28.1819 118.384 27.9152 118.384 27.6059C118.384 27.4245 118.432 27.2752 118.528 27.1579C118.634 27.0405 118.762 26.9819 118.912 26.9819C119.05 26.9819 119.269 27.0619 119.568 27.2219C119.952 27.4032 120.309 27.5419 120.64 27.6379C120.97 27.7445 121.365 27.7979 121.824 27.7979C123.296 27.7979 124.032 27.0565 124.032 25.5739V24.3419C123.808 24.8112 123.466 25.1792 123.008 25.4459C122.549 25.7019 122.016 25.8299 121.408 25.8299C120.725 25.8299 120.117 25.6699 119.584 25.3499C119.05 25.0299 118.634 24.5765 118.336 23.9899C118.048 23.4032 117.904 22.7259 117.904 21.9579C117.904 21.1899 118.053 20.5125 118.352 19.9259C118.65 19.3392 119.061 18.8859 119.584 18.5659C120.117 18.2352 120.725 18.0699 121.408 18.0699C122.005 18.0699 122.528 18.1979 122.976 18.4539C123.434 18.7099 123.781 19.0725 124.016 19.5419V18.8699C124.016 18.6352 124.085 18.4485 124.224 18.3099C124.373 18.1712 124.57 18.1019 124.816 18.1019ZM121.792 24.5499C122.485 24.5499 123.029 24.3205 123.424 23.8619C123.818 23.4032 124.016 22.7685 124.016 21.9579C124.016 21.1579 123.818 20.5285 123.424 20.0699C123.04 19.6005 122.496 19.3659 121.792 19.3659C121.088 19.3659 120.533 19.5952 120.128 20.0539C119.733 20.5125 119.536 21.1472 119.536 21.9579C119.536 22.7685 119.738 23.4032 120.144 23.8619C120.549 24.3205 121.098 24.5499 121.792 24.5499ZM128.683 26.1499C128.449 26.1499 128.251 26.0859 128.091 25.9579C127.942 25.8299 127.867 25.6379 127.867 25.3819V18.8859C127.867 18.6299 127.942 18.4379 128.091 18.3099C128.251 18.1712 128.449 18.1019 128.683 18.1019C128.918 18.1019 129.11 18.1712 129.259 18.3099C129.409 18.4379 129.483 18.6299 129.483 18.8859V25.3819C129.483 25.6379 129.409 25.8299 129.259 25.9579C129.11 26.0859 128.918 26.1499 128.683 26.1499ZM128.683 16.5339C128.374 16.5339 128.129 16.4485 127.947 16.2779C127.766 16.1072 127.675 15.8832 127.675 15.6059C127.675 15.3285 127.766 15.1099 127.947 14.9499C128.129 14.7792 128.374 14.6939 128.683 14.6939C128.982 14.6939 129.222 14.7792 129.403 14.9499C129.595 15.1099 129.691 15.3285 129.691 15.6059C129.691 15.8832 129.601 16.1072 129.419 16.2779C129.238 16.4485 128.993 16.5339 128.683 16.5339ZM135.95 18.0699C137.817 18.0699 138.75 19.1205 138.75 21.2219V25.3819C138.75 25.6272 138.676 25.8192 138.526 25.9579C138.388 26.0859 138.19 26.1499 137.934 26.1499C137.689 26.1499 137.492 26.0805 137.342 25.9419C137.204 25.8032 137.134 25.6165 137.134 25.3819V21.3019C137.134 20.6405 137.001 20.1552 136.734 19.8459C136.478 19.5365 136.073 19.3819 135.518 19.3819C134.868 19.3819 134.345 19.5845 133.95 19.9899C133.556 20.3952 133.358 20.9392 133.358 21.6219V25.3819C133.358 25.6165 133.284 25.8032 133.134 25.9419C132.996 26.0805 132.804 26.1499 132.558 26.1499C132.313 26.1499 132.116 26.0805 131.966 25.9419C131.817 25.8032 131.742 25.6165 131.742 25.3819V18.8699C131.742 18.6459 131.817 18.4645 131.966 18.3259C132.126 18.1765 132.324 18.1019 132.558 18.1019C132.793 18.1019 132.98 18.1712 133.118 18.3099C133.257 18.4485 133.326 18.6299 133.326 18.8539V19.5099C133.582 19.0405 133.94 18.6832 134.398 18.4379C134.857 18.1925 135.374 18.0699 135.95 18.0699ZM155.804 18.5979C155.921 18.2779 156.14 18.1179 156.46 18.1179C156.662 18.1179 156.844 18.1872 157.004 18.3259C157.164 18.4645 157.244 18.6352 157.244 18.8379C157.244 18.9445 157.222 19.0405 157.18 19.1259L154.524 25.6059C154.46 25.7765 154.353 25.9099 154.204 26.0059C154.054 26.0912 153.889 26.1339 153.708 26.1339C153.537 26.1339 153.377 26.0912 153.228 26.0059C153.078 25.9099 152.972 25.7765 152.908 25.6059L150.828 20.4699L148.796 25.6059C148.732 25.7765 148.625 25.9099 148.476 26.0059C148.337 26.0912 148.177 26.1339 147.996 26.1339C147.825 26.1339 147.66 26.0912 147.5 26.0059C147.35 25.9099 147.238 25.7765 147.164 25.6059L144.524 19.1259C144.481 19.0405 144.46 18.9499 144.46 18.8539C144.46 18.6405 144.545 18.4645 144.716 18.3259C144.897 18.1872 145.094 18.1179 145.308 18.1179C145.628 18.1179 145.846 18.2725 145.964 18.5819L148.028 24.0379L150.14 18.6299C150.204 18.4592 150.305 18.3312 150.444 18.2459C150.582 18.1605 150.732 18.1179 150.892 18.1179C151.041 18.1179 151.185 18.1605 151.324 18.2459C151.462 18.3312 151.564 18.4592 151.628 18.6299L153.74 24.0059L155.804 18.5979ZM159.558 26.1499C159.324 26.1499 159.126 26.0859 158.966 25.9579C158.817 25.8299 158.742 25.6379 158.742 25.3819V18.8859C158.742 18.6299 158.817 18.4379 158.966 18.3099C159.126 18.1712 159.324 18.1019 159.558 18.1019C159.793 18.1019 159.985 18.1712 160.134 18.3099C160.284 18.4379 160.358 18.6299 160.358 18.8859V25.3819C160.358 25.6379 160.284 25.8299 160.134 25.9579C159.985 26.0859 159.793 26.1499 159.558 26.1499ZM159.558 16.5339C159.249 16.5339 159.004 16.4485 158.822 16.2779C158.641 16.1072 158.55 15.8832 158.55 15.6059C158.55 15.3285 158.641 15.1099 158.822 14.9499C159.004 14.7792 159.249 14.6939 159.558 14.6939C159.857 14.6939 160.097 14.7792 160.278 14.9499C160.47 15.1099 160.566 15.3285 160.566 15.6059C160.566 15.8832 160.476 16.1072 160.294 16.2779C160.113 16.4485 159.868 16.5339 159.558 16.5339ZM166.441 24.9179C166.676 24.9392 166.841 25.0032 166.937 25.1099C167.044 25.2059 167.097 25.3445 167.097 25.5259C167.097 25.7392 167.012 25.9045 166.841 26.0219C166.681 26.1285 166.441 26.1712 166.121 26.1499L165.689 26.1179C164.825 26.0539 164.18 25.7925 163.753 25.3339C163.327 24.8645 163.113 24.1765 163.113 23.2699V19.5099H162.153C161.684 19.5099 161.449 19.3019 161.449 18.8859C161.449 18.6939 161.508 18.5445 161.625 18.4379C161.753 18.3205 161.929 18.2619 162.153 18.2619H163.113V16.6139C163.113 16.3685 163.183 16.1765 163.321 16.0379C163.471 15.8992 163.668 15.8299 163.913 15.8299C164.159 15.8299 164.356 15.8992 164.505 16.0379C164.655 16.1765 164.729 16.3685 164.729 16.6139V18.2619H166.313C166.537 18.2619 166.708 18.3205 166.825 18.4379C166.953 18.5445 167.017 18.6939 167.017 18.8859C167.017 19.0885 166.953 19.2432 166.825 19.3499C166.708 19.4565 166.537 19.5099 166.313 19.5099H164.729V23.3819C164.729 23.8832 164.831 24.2512 165.033 24.4859C165.247 24.7205 165.567 24.8539 165.993 24.8859L166.441 24.9179ZM172.482 18.0699C174.338 18.0699 175.266 19.1205 175.266 21.2219V25.3819C175.266 25.6165 175.191 25.8032 175.042 25.9419C174.893 26.0805 174.695 26.1499 174.45 26.1499C174.205 26.1499 174.007 26.0805 173.858 25.9419C173.719 25.8032 173.65 25.6165 173.65 25.3819V21.2379C173.65 20.5979 173.517 20.1285 173.25 19.8299C172.994 19.5312 172.589 19.3819 172.034 19.3819C171.383 19.3819 170.861 19.5845 170.466 19.9899C170.071 20.3952 169.874 20.9392 169.874 21.6219V25.3819C169.874 25.6165 169.799 25.8032 169.65 25.9419C169.511 26.0805 169.319 26.1499 169.074 26.1499C168.829 26.1499 168.631 26.0805 168.482 25.9419C168.333 25.8032 168.258 25.6165 168.258 25.3819V15.4779C168.258 15.2432 168.333 15.0565 168.482 14.9179C168.642 14.7792 168.845 14.7099 169.09 14.7099C169.325 14.7099 169.511 14.7792 169.65 14.9179C169.799 15.0459 169.874 15.2219 169.874 15.4459V19.4459C170.141 18.9979 170.498 18.6565 170.946 18.4219C171.394 18.1872 171.906 18.0699 172.482 18.0699ZM190.367 20.0859C190.57 20.0859 190.73 20.1445 190.847 20.2619C190.975 20.3792 191.039 20.5392 191.039 20.7419V24.4859C191.039 24.8485 190.986 25.1099 190.879 25.2699C190.783 25.4299 190.586 25.5579 190.287 25.6539C189.861 25.8245 189.354 25.9579 188.767 26.0539C188.181 26.1499 187.599 26.1979 187.023 26.1979C185.882 26.1979 184.895 25.9685 184.063 25.5099C183.231 25.0512 182.597 24.3899 182.159 23.5259C181.722 22.6619 181.503 21.6272 181.503 20.4219C181.503 19.2379 181.722 18.2139 182.159 17.3499C182.597 16.4859 183.221 15.8245 184.031 15.3659C184.853 14.8965 185.813 14.6619 186.911 14.6619C187.658 14.6619 188.346 14.7739 188.975 14.9979C189.615 15.2112 190.159 15.5259 190.607 15.9419C190.821 16.1125 190.927 16.3259 190.927 16.5819C190.927 16.7739 190.874 16.9392 190.767 17.0779C190.661 17.2059 190.533 17.2699 190.383 17.2699C190.287 17.2699 190.202 17.2539 190.127 17.2219C190.053 17.1899 189.957 17.1365 189.839 17.0619C189.317 16.6779 188.842 16.4112 188.415 16.2619C187.989 16.1019 187.498 16.0219 186.943 16.0219C185.727 16.0219 184.799 16.4005 184.159 17.1579C183.519 17.9045 183.199 18.9925 183.199 20.4219C183.199 21.8832 183.525 22.9925 184.175 23.7499C184.837 24.4965 185.802 24.8699 187.071 24.8699C187.925 24.8699 188.746 24.7419 189.535 24.4859V21.3339H187.439C187.226 21.3339 187.055 21.2805 186.927 21.1739C186.81 21.0565 186.751 20.9019 186.751 20.7099C186.751 20.5179 186.81 20.3685 186.927 20.2619C187.055 20.1445 187.226 20.0859 187.439 20.0859H190.367ZM196.728 26.1819C195.96 26.1819 195.283 26.0165 194.696 25.6859C194.12 25.3552 193.672 24.8859 193.352 24.2779C193.043 23.6592 192.888 22.9445 192.888 22.1339C192.888 21.3125 193.043 20.5979 193.352 19.9899C193.672 19.3712 194.12 18.8965 194.696 18.5659C195.283 18.2352 195.96 18.0699 196.728 18.0699C197.496 18.0699 198.168 18.2352 198.744 18.5659C199.331 18.8965 199.779 19.3712 200.088 19.9899C200.408 20.5979 200.568 21.3125 200.568 22.1339C200.568 22.9445 200.408 23.6592 200.088 24.2779C199.779 24.8859 199.331 25.3552 198.744 25.6859C198.168 26.0165 197.496 26.1819 196.728 26.1819ZM196.728 24.9019C197.443 24.9019 197.987 24.6672 198.36 24.1979C198.744 23.7285 198.936 23.0405 198.936 22.1339C198.936 21.2379 198.744 20.5552 198.36 20.0859C197.976 19.6059 197.432 19.3659 196.728 19.3659C196.024 19.3659 195.48 19.6059 195.096 20.0859C194.712 20.5552 194.52 21.2379 194.52 22.1339C194.52 23.0405 194.707 23.7285 195.08 24.1979C195.464 24.6672 196.013 24.9019 196.728 24.9019ZM205.759 26.1819C204.991 26.1819 204.314 26.0165 203.727 25.6859C203.151 25.3552 202.703 24.8859 202.383 24.2779C202.074 23.6592 201.919 22.9445 201.919 22.1339C201.919 21.3125 202.074 20.5979 202.383 19.9899C202.703 19.3712 203.151 18.8965 203.727 18.5659C204.314 18.2352 204.991 18.0699 205.759 18.0699C206.527 18.0699 207.199 18.2352 207.775 18.5659C208.362 18.8965 208.81 19.3712 209.119 19.9899C209.439 20.5979 209.599 21.3125 209.599 22.1339C209.599 22.9445 209.439 23.6592 209.119 24.2779C208.81 24.8859 208.362 25.3552 207.775 25.6859C207.199 26.0165 206.527 26.1819 205.759 26.1819ZM205.759 24.9019C206.474 24.9019 207.018 24.6672 207.391 24.1979C207.775 23.7285 207.967 23.0405 207.967 22.1339C207.967 21.2379 207.775 20.5552 207.391 20.0859C207.007 19.6059 206.463 19.3659 205.759 19.3659C205.055 19.3659 204.511 19.6059 204.127 20.0859C203.743 20.5552 203.551 21.2379 203.551 22.1339C203.551 23.0405 203.738 23.7285 204.111 24.1979C204.495 24.6672 205.045 24.9019 205.759 24.9019ZM217.863 18.1019C218.108 18.1019 218.3 18.1765 218.439 18.3259C218.588 18.4645 218.663 18.6512 218.663 18.8859V25.4459C218.663 26.6405 218.343 27.5419 217.703 28.1499C217.073 28.7579 216.14 29.0619 214.903 29.0619C213.751 29.0619 212.791 28.8432 212.023 28.4059C211.628 28.1819 211.431 27.9152 211.431 27.6059C211.431 27.4245 211.479 27.2752 211.575 27.1579C211.681 27.0405 211.809 26.9819 211.959 26.9819C212.097 26.9819 212.316 27.0619 212.615 27.2219C212.999 27.4032 213.356 27.5419 213.687 27.6379C214.017 27.7445 214.412 27.7979 214.871 27.7979C216.343 27.7979 217.079 27.0565 217.079 25.5739V24.3419C216.855 24.8112 216.513 25.1792 216.055 25.4459C215.596 25.7019 215.063 25.8299 214.455 25.8299C213.772 25.8299 213.164 25.6699 212.631 25.3499C212.097 25.0299 211.681 24.5765 211.383 23.9899C211.095 23.4032 210.951 22.7259 210.951 21.9579C210.951 21.1899 211.1 20.5125 211.399 19.9259C211.697 19.3392 212.108 18.8859 212.631 18.5659C213.164 18.2352 213.772 18.0699 214.455 18.0699C215.052 18.0699 215.575 18.1979 216.023 18.4539C216.481 18.7099 216.828 19.0725 217.063 19.5419V18.8699C217.063 18.6352 217.132 18.4485 217.271 18.3099C217.42 18.1712 217.617 18.1019 217.863 18.1019ZM214.839 24.5499C215.532 24.5499 216.076 24.3205 216.471 23.8619C216.865 23.4032 217.063 22.7685 217.063 21.9579C217.063 21.1579 216.865 20.5285 216.471 20.0699C216.087 19.6005 215.543 19.3659 214.839 19.3659C214.135 19.3659 213.58 19.5952 213.175 20.0539C212.78 20.5125 212.583 21.1472 212.583 21.9579C212.583 22.7685 212.785 23.4032 213.191 23.8619C213.596 24.3205 214.145 24.5499 214.839 24.5499ZM221.73 26.1499C221.495 26.1499 221.298 26.0859 221.138 25.9579C220.989 25.8299 220.914 25.6379 220.914 25.3819V15.4939C220.914 15.2379 220.989 15.0459 221.138 14.9179C221.298 14.7792 221.495 14.7099 221.73 14.7099C221.965 14.7099 222.157 14.7792 222.306 14.9179C222.455 15.0459 222.53 15.2379 222.53 15.4939V25.3819C222.53 25.6379 222.455 25.8299 222.306 25.9579C222.157 26.0859 221.965 26.1499 221.73 26.1499ZM230.901 24.1019C231.05 24.1019 231.173 24.1605 231.269 24.2779C231.365 24.3952 231.413 24.5445 231.413 24.7259C231.413 25.0352 231.221 25.2965 230.837 25.5099C230.464 25.7232 230.053 25.8885 229.605 26.0059C229.168 26.1232 228.746 26.1819 228.341 26.1819C227.104 26.1819 226.128 25.8245 225.413 25.1099C224.698 24.3845 224.341 23.3979 224.341 22.1499C224.341 21.3499 224.496 20.6405 224.805 20.0219C225.125 19.4032 225.568 18.9232 226.133 18.5819C226.709 18.2405 227.36 18.0699 228.085 18.0699C229.13 18.0699 229.957 18.4059 230.565 19.0779C231.173 19.7499 231.477 20.6565 231.477 21.7979C231.477 22.2245 231.285 22.4379 230.901 22.4379H225.957C226.064 24.0912 226.858 24.9179 228.341 24.9179C228.736 24.9179 229.077 24.8645 229.365 24.7579C229.653 24.6512 229.957 24.5125 230.277 24.3419C230.309 24.3205 230.394 24.2779 230.533 24.2139C230.682 24.1392 230.805 24.1019 230.901 24.1019ZM228.117 19.2539C227.498 19.2539 227.002 19.4512 226.629 19.8459C226.256 20.2405 226.032 20.7952 225.957 21.5099H230.085C230.053 20.7845 229.866 20.2299 229.525 19.8459C229.194 19.4512 228.725 19.2539 228.117 19.2539Z" fill="white"/>
<path fill-rule="evenodd" clip-rule="evenodd" d="M91.6523 22.2528C91.0862 24.0735 89.6753 25.334 87.7976 25.6119C84.9323 26.0361 82.1189 23.8635 81.8962 20.9735C81.665 17.9748 84.0305 15.4698 86.9825 15.4698C87.665 15.4698 88.3161 15.6041 88.9111 15.8472C89.1177 15.9314 89.3514 15.8591 89.4568 15.6636L90.6765 13.4137C90.7921 13.1986 90.7088 12.9215 90.4861 12.8212C89.4177 12.3385 88.2328 12.0699 86.985 12.0699C82.2064 12.0699 78.3483 16.0104 78.4852 20.8188C78.6101 25.2057 82.2311 28.8759 86.6144 29.0621C91.3285 29.261 95.2384 25.623 95.4756 21.0135C95.4849 20.8452 95.4815 19.8651 95.4781 19.2905C95.4773 19.056 95.2869 18.8698 95.0531 18.8698H87.4041C87.1695 18.8698 86.9791 19.0594 86.9791 19.2948V21.8278C86.9791 22.0615 87.1695 22.2528 87.4041 22.2528H91.6523Z" fill="white"/>
</svg>
