<svg width="18" height="18" viewBox="0 0 18 18" fill="none" xmlns="http://www.w3.org/2000/svg">
<path fill-rule="evenodd" clip-rule="evenodd" d="M13.6523 10.2528C13.0862 12.0735 11.6753 13.334 9.79763 13.6119C6.93232 14.0361 4.11886 11.8635 3.89616 8.97354C3.66496 5.97476 6.03048 3.46983 8.98249 3.46983C9.66503 3.46983 10.3161 3.60413 10.9111 3.84722C11.1177 3.93137 11.3514 3.85913 11.4568 3.66363L12.6765 1.41369C12.7921 1.19865 12.7088 0.921548 12.4861 0.821249C11.4177 0.338453 10.2328 0.0698547 8.98504 0.0698547C4.20641 0.0698547 0.348312 4.01042 0.48516 8.81884C0.610108 13.2057 4.23106 16.8759 8.61444 17.0621C13.3285 17.261 17.2384 13.623 17.4756 9.01349C17.4849 8.84519 17.4815 7.86514 17.4781 7.29055C17.4773 7.05595 17.2869 6.8698 17.0531 6.8698H9.40408C9.16949 6.8698 8.97909 7.05935 8.97909 7.2948V9.82778C8.97909 10.0615 9.16949 10.2528 9.40408 10.2528H13.6523" fill="white"/>
</svg>
