<svg width="95" height="115" viewBox="0 0 95 115" fill="none" xmlns="http://www.w3.org/2000/svg">
<path d="M48.8804 114.903C74.3019 114.903 94.9101 94.3297 94.9101 68.9514C94.9101 43.5732 74.3019 23 48.8804 23C23.4588 23 2.85062 43.5732 2.85062 68.9514C2.85062 94.3297 23.4588 114.903 48.8804 114.903Z" fill="white"/>
<mask id="mask0_187_1147" style="mask-type:alpha" maskUnits="userSpaceOnUse" x="2" y="22" width="93" height="93">
<path d="M48.0297 114.362C73.4513 114.362 94.0595 93.7885 94.0595 68.4102C94.0595 43.0319 73.4513 22.4588 48.0297 22.4588C22.6082 22.4588 2 43.0319 2 68.4102C2 93.7885 22.6082 114.362 48.0297 114.362Z" fill="#C1BFFF"/>
</mask>
<g mask="url(#mask0_187_1147)">
<path d="M53.8302 106.038C58.26 134.82 57.003 163.466 50.8537 192.388H40.2746C41.5378 173.622 42.5019 151.315 39.5472 136.543L19.3624 192.629H7.8067L26.8513 112.776L33.3931 99.9692L48.7338 98.1204L53.8302 106.038Z" fill="#102048"/>
<path d="M41.9583 75.042L33.0956 75.1462L32.2156 63.5557L32.1112 62.1702L41.0144 62.0909L41.3321 66.4868L41.9583 75.042Z" fill="#F9B384"/>
<path d="M41.2823 65.6891C38.3805 67.7556 34.5847 66.4665 32.2156 63.5572L32.1112 62.1702L41.0144 62.0909L41.2823 65.6891Z" fill="#102048"/>
<path d="M39.217 64.7188C34.7187 65.7451 29.697 62.8653 27.7158 59.0402L27.4479 52.1736L29.9649 48.6097L40.6749 49.5302C40.625 49.5426 40.6313 49.6857 40.6749 49.9469C40.7995 50.6124 41.2107 52.0305 41.5907 53.741C42.5222 57.902 43.2667 63.7952 39.217 64.7188Z" fill="#F9B384"/>
<path d="M31.6783 70.6571C31.6783 70.6571 38.2902 75.9439 44.0439 68.4118L54.947 104.587C48.2665 109.299 39.8213 110.927 29.6877 109.604L31.6783 70.6571Z" fill="white"/>
<g opacity="0.3">
<path opacity="0.3" d="M33.0956 75.1462C33.996 75.4666 34.9315 75.6785 35.8822 75.7775C36.8102 75.8812 37.7487 75.8439 38.6656 75.6671C39.5834 75.4995 40.4694 75.19 41.2917 74.7497C41.7247 74.56 42.1 74.2708 42.5128 74.0282C42.9256 73.7856 43.2714 73.4482 43.6826 73.1776C43.3802 73.5617 43.0578 73.9297 42.7169 74.2801C42.3399 74.5911 41.9879 74.9518 41.5518 75.196C40.7162 75.7532 39.7754 76.1342 38.7871 76.3155C36.8097 76.6913 34.7637 76.271 33.0956 75.1462Z" fill="#1F3C88"/>
</g>
<path d="M67.6164 43.0632C61.6337 53.1485 55.799 62.0101 50.525 66.2318C49.7339 66.8483 48.7431 67.1528 47.7416 67.087C45.7588 66.9859 43.7122 67.2269 41.4318 67.7665C41.91 85.8628 43.6296 102.627 49.7961 112.903C53.5109 111.833 58.017 110.114 60.5076 108.018C58.4827 101.142 56.0778 91.2833 54.2928 82.6721L74.0633 47.4217L67.6164 43.0632Z" fill="#1F3C88"/>
<path d="M41.5876 53.7409C34.7794 57.6096 29.1269 50.5611 29.1269 50.5611L40.678 49.9469C40.7963 50.6124 41.2075 52.0305 41.5876 53.7409Z" fill="#E28B6D"/>
<path d="M29.2313 57.7185C30.0661 56.6409 30.4477 54.8294 29.6985 51.1878C32.1782 53.9866 35.8666 54.6428 41.2698 52.2436C41.2698 52.2436 44.7869 50.8706 43.9816 47.2926C43.2495 44.0475 40.5393 42.3371 38.4226 44.9805C33.6221 43.581 28.9011 43.3291 26.7843 47.686C26.7843 47.686 20.04 51.1847 25.7937 56.8602L29.2313 57.7185Z" fill="#102048"/>
<path d="M26.1239 93.2332L24.5367 117.129C33.3978 116.733 39.3478 113.828 39.3478 113.828C40.1172 99.5587 38.2824 83.6066 32.6284 69.2545C18.2659 74.5817 14.2162 92.2349 12.0854 118.468L20.4964 119.442L26.1239 93.2332Z" fill="#1F3C88"/>
<path d="M29.3637 60.0944C26.6613 61.0569 24.9339 60.8392 24.7906 58.2611C24.7081 56.7824 26.2361 55.6038 27.5818 56.2288C28.1644 56.4994 28.7095 57.0063 29.2313 57.7185L29.3637 60.0944Z" fill="#F9B384"/>
<path d="M52.4923 74.5242C52.8505 75.6593 53.162 76.8037 53.4611 77.9451C53.7601 79.0864 54.042 80.2448 54.3131 81.3986C54.5841 82.5523 54.8348 83.7108 55.0607 84.8738C55.2865 86.0369 55.5046 87.2062 55.6666 88.3818L55.3644 88.4518C54.9984 87.3198 54.6884 86.1738 54.3847 85.0309C54.081 83.888 53.8069 82.7327 53.5436 81.5774C53.2804 80.4221 53.0281 79.2636 52.8084 78.0974C52.5888 76.9312 52.363 75.765 52.1854 74.5926L52.4923 74.5242Z" fill="#102048"/>
<path d="M26.5429 85.1864C26.5834 86.3355 26.5756 87.4815 26.5569 88.6275C26.5382 89.7735 26.5008 90.9195 26.4526 92.0639C26.4043 93.2083 26.3326 94.3512 26.2376 95.4941C26.1426 96.637 26.0414 97.7783 25.8825 98.9149L25.571 98.901C25.5211 97.7519 25.5305 96.6043 25.5445 95.4583C25.5585 94.3123 25.6052 93.1679 25.6613 92.0235C25.7174 90.879 25.7859 89.7362 25.8872 88.6026C25.9884 87.4691 26.0819 86.3184 26.2314 85.1818L26.5429 85.1864Z" fill="#102048"/>
<path d="M27.7438 58.6639C27.6052 58.4695 27.4759 58.2689 27.3404 58.0854C27.2159 57.9057 27.0717 57.7403 26.9105 57.5925C26.8582 57.5286 26.7898 57.4796 26.7124 57.4507C26.6349 57.4217 26.5512 57.4138 26.4697 57.4277C26.3139 57.4479 26.1426 57.6236 25.9604 57.7698L25.8046 57.6734C25.9058 57.4433 26.0242 57.1851 26.3326 57.0514C26.641 56.9177 27.0226 57.0685 27.2126 57.252C27.5804 57.6192 27.8248 58.0913 27.912 58.6032L27.7438 58.6639Z" fill="#102048"/>
</g>
<path d="M71.9817 24.0203L71.2496 23.7093C73.29 18.805 72.9349 14.8198 71.435 13.9412C70.6562 13.4841 69.5752 14.0236 68.4756 15.42L67.8525 14.9286C69.8073 12.4563 71.2932 12.9367 71.8415 13.2586C73.6623 14.3362 74.2168 18.6511 71.9817 24.0203Z" fill="#FBC343"/>
<path opacity="0.6" d="M66.3277 21.4282C65.8604 20.6228 65.8853 19.738 66.3806 19.4534C66.8759 19.1689 67.6532 19.5903 68.1189 20.3864C68.5846 21.1825 68.5612 22.0766 68.0659 22.3612C67.5706 22.6457 66.7949 22.2337 66.3277 21.4282Z" fill="white"/>
<path d="M43.2251 12.6243L42.8506 13.8108L52.5054 16.8479L52.8799 15.6614L43.2251 12.6243Z" fill="#FBC343"/>
<path d="M63.8843 8.30829e-06L62.1251 9.95016L63.3522 10.1664L65.1115 0.216231L63.8843 8.30829e-06Z" fill="#FBC343"/>
<path d="M51.7464 2.62393L50.6969 3.29449L56.1529 11.8047L57.2024 11.1341L51.7464 2.62393Z" fill="#FBC343"/>
<path d="M68.0005 43.1289L70.8446 34.6187L78.5422 36.4131C79.1216 39.2649 75.6638 43.5923 73.0907 46.8312L68.0005 43.1289Z" fill="#F9B384"/>
<path d="M83.6044 40.6643L72.5783 47.3381L72.0845 43.4679L80.3973 38.4377L83.6044 40.6643Z" fill="#6F3428"/>
<path d="M77.6544 40.0983L74.8274 41.8088L68.1158 32.2848L72.2994 29.7518L77.6544 40.0983Z" fill="#BB9132"/>
<path d="M72.8695 29.4159L67.5581 32.63C66.9827 32.9781 66.3011 33.1081 65.6377 32.9962C64.9743 32.8843 64.3734 32.538 63.9445 32.0205L55.0585 21.2914L68.5814 13.1078L73.9987 25.936C74.26 26.5548 74.2897 27.2468 74.0824 27.8856C73.8751 28.5245 73.4446 29.0676 72.8695 29.4159Z" fill="#FBC343"/>
<path d="M61.6346 29.0598C55.8311 28.5545 52.2549 26.0681 52.1489 23.9565C52.1178 23.3237 52.3779 21.7796 55.4791 21.1996L55.6255 21.9771C53.8747 22.3083 52.8966 23.0143 52.9418 23.9161C53.029 25.6499 56.4027 27.8035 61.7032 28.2699L61.6346 29.0598Z" fill="#FBC343"/>
<path opacity="0.6" d="M66.5597 20.0552C66.0924 19.2498 66.1189 18.3666 66.6127 18.0805C67.1064 17.7943 67.8852 18.2173 68.3525 19.0274C68.8198 19.8375 68.7948 20.7161 68.2995 21.0006C67.8042 21.2852 67.0254 20.8607 66.5597 20.0552Z" fill="white"/>
<path d="M78.5344 36.2125C78.7276 37.5855 77.86 38.8108 76.0251 38.8108C74.8803 38.8108 73.276 37.2419 72.938 35.3791C72.6592 33.8428 73.2495 32.8352 74.3398 32.3889C75.452 31.9333 78.1653 33.6236 78.5344 36.2125Z" fill="#F9B384"/>
<path d="M72.8275 36.6215C73.1172 35.533 72.9676 34.5425 72.4957 34.4181C72.0237 34.2937 71.2963 34.8053 71.0066 35.8969C70.7169 36.9885 70.3836 38.5621 71.1312 38.9135C72.4521 39.537 72.5393 37.7146 72.8275 36.6215Z" fill="#F9B384"/>
<path d="M2.10651 22.4422C2.1525 21.2574 2.36481 20.3317 2.73661 19.6899C3.1084 19.0481 4.0692 17.3932 16.1565 17.3932V17.0095C3.84417 17.0095 2.86869 18.6902 2.40003 19.498C1.99693 20.1935 1.76798 21.1778 1.71515 22.423L2.10651 22.4422Z" fill="#605BFF"/>
<path d="M2.54484 29.0233L2.9225 28.937C2.63507 27.7446 2.41298 26.5379 2.25719 25.3222L1.8717 25.3682C2.02964 26.5975 2.25434 27.8176 2.54484 29.0233Z" fill="#605BFF"/>
<path d="M3.58 20.1599C5.20318 17.3606 28.0735 18.3372 32.3129 19.5277C38.0523 21.1452 40.6304 35.6725 41.0648 39.177C41.0648 39.177 37.6981 35.708 34.7266 34.8331C33.3109 35.3185 17.716 37.9912 14.8092 38.752C11.4934 39.6202 7.9662 38.7414 6.34498 35.9142C4.72376 33.0871 1.88441 23.0821 3.58 20.1599Z" fill="#605BFF"/>
<path d="M8.70686 24.2055C8.75334 24.2056 8.79978 24.2024 8.84579 24.1959C19.6631 22.684 32.1828 23.7575 32.308 23.769C32.5628 23.7891 32.8155 23.7098 33.0109 23.5482C33.2063 23.3866 33.3288 23.1559 33.3516 22.9062C33.3745 22.6566 33.2958 22.4082 33.1328 22.2151C32.9698 22.022 32.7356 21.8999 32.4812 21.8752C32.3569 21.8666 19.6102 20.7701 8.57184 22.3146C8.32806 22.347 8.106 22.4692 7.95073 22.6563C7.79546 22.8434 7.71862 23.0814 7.7358 23.3221C7.75299 23.5627 7.8629 23.7879 8.04325 23.952C8.22359 24.116 8.46085 24.2067 8.70686 24.2055Z" fill="white"/>
<path d="M10.287 29.2919C10.3434 29.2919 10.3997 29.2871 10.4553 29.2776C22.8811 27.1373 33.9938 27.7618 34.1044 27.7685C34.3581 27.7788 34.6058 27.6911 34.7943 27.5243C34.9828 27.3574 35.097 27.1247 35.1124 26.8762C35.1278 26.6276 35.0431 26.3831 34.8765 26.1951C34.71 26.0072 34.4749 25.8908 34.2218 25.8709C34.1083 25.8632 22.7832 25.2253 10.1206 27.4059C9.88093 27.4458 9.66531 27.5727 9.51659 27.7613C9.36787 27.9499 9.29695 28.1865 9.31789 28.424C9.33884 28.6615 9.45013 28.8827 9.62966 29.0435C9.80919 29.2042 10.0438 29.2929 10.287 29.2919Z" fill="white"/>
<path d="M16.6819 34.5021C16.7722 34.5017 16.862 34.4895 16.949 34.4657C26.4953 31.793 35.0808 32.2928 35.1659 32.2976C35.4114 32.2966 35.6474 32.2043 35.8262 32.0393C36.005 31.8744 36.1134 31.6491 36.1294 31.4089C36.1454 31.1687 36.0679 30.9315 35.9125 30.7451C35.7571 30.5588 35.5354 30.4371 35.2922 30.4048C34.9292 30.3827 26.3006 29.8752 16.4177 32.642C16.1928 32.7049 15.9987 32.8453 15.8711 33.0374C15.7435 33.2295 15.691 33.4604 15.7233 33.6875C15.7556 33.9146 15.8705 34.1226 16.0468 34.2731C16.2231 34.4237 16.449 34.5068 16.6828 34.5069L16.6819 34.5021Z" fill="white"/>
</svg>
