<svg width="487" height="442" viewBox="0 0 487 442" fill="none" xmlns="http://www.w3.org/2000/svg">
<path d="M51.5955 194.566C51.5955 194.566 59.8423 186.33 55.7189 181.794C51.5955 177.258 50.3526 176.041 50.7709 169.034C51.1892 162.027 41.6994 163.686 41.6994 157.515C41.6994 151.344 39.2254 147.226 33.871 145.985C28.5166 144.743 30.166 137.748 26.8673 137.748C23.5686 137.748 19.8516 142.284 22.3256 146.402C24.7996 150.52 27.2736 152.574 26.4489 157.515C25.6243 162.457 31.8153 162.039 32.64 166.157C33.4647 170.275 28.5166 174.799 33.0463 178.918C37.5761 183.036 42.1178 184.265 40.8748 187.977C39.6318 191.69 46.6116 196.226 51.5955 194.566Z" fill="#54A259"/>
<path d="M51.0701 200.594C51.0701 200.594 40.8991 190.436 45.9786 184.85C51.0582 179.264 52.5999 177.688 52.086 169.106C51.5721 160.523 63.2729 162.505 63.2729 154.877C63.2729 147.25 66.3326 142.189 72.906 140.661C79.4795 139.133 77.4836 130.503 81.5472 130.503C85.6108 130.503 90.2003 136.089 87.1406 141.174C84.081 146.259 81.0452 148.79 82.0611 154.877C83.077 160.965 75.4398 160.475 74.4239 165.549C73.408 170.622 79.5154 176.22 73.9219 181.293C68.3285 186.366 62.7351 187.894 64.2529 192.466C65.7708 197.037 57.1775 202.636 51.0701 200.594Z" fill="#68BF73"/>
<path d="M58.4448 217.759H46.9949C45.6389 217.757 44.3293 217.266 43.3078 216.375C42.2864 215.484 41.622 214.255 41.4374 212.913L38.3896 190.723H67.074L64.0262 212.913C63.841 214.259 63.1732 215.492 62.1468 216.383C61.1203 217.274 59.8049 217.763 58.4448 217.759Z" fill="#D5E7F7"/>
<path d="M428.173 151.356C428.173 151.356 418.325 160.404 426.596 176.136C434.866 191.869 428.986 209.165 421.875 213.88" stroke="#171142" stroke-width="0.98833" stroke-miterlimit="10"/>
<path d="M407.103 202.385C407.103 202.385 415.373 206.217 415.373 214.477H396.179L407.103 202.385Z" fill="#D5E7F7"/>
<path d="M394.899 114.197L394.11 122.064L430.731 158.637L433.492 149.983L394.899 114.197Z" fill="#D5E7F7"/>
<path d="M395.813 108.963L391.638 113.132L435.347 156.786L439.522 152.617L395.813 108.963Z" fill="#171142"/>
<path d="M432.259 150.108L386.588 216.178L395.332 222.207L441.003 156.137L432.259 150.108Z" fill="#171142"/>
<path d="M283.867 315.138L253.939 423.677H250.784L275.202 312.786L283.867 315.138Z" fill="#7B9ED2"/>
<path d="M258.66 315.138L228.733 423.677H225.59L250.007 312.786L258.66 315.138Z" fill="#7B9ED2"/>
<path d="M301.186 315.138L331.113 423.677H334.268L309.851 312.786L301.186 315.138Z" fill="#7B9ED2"/>
<path d="M326.392 315.138L356.319 423.677H359.462L335.045 312.786L326.392 315.138Z" fill="#7B9ED2"/>
<path d="M338.236 242.79C338.236 242.79 337.447 180.66 308.357 179.872C279.266 179.085 261.111 202.671 257.956 230.985C254.801 259.299 235.917 297.83 231.973 309.635C228.029 321.44 283.162 325.368 298.126 320.653C313.09 315.938 344.583 315.15 342.216 282.109C339.85 249.069 338.236 242.79 338.236 242.79Z" fill="#F89821"/>
<path d="M331.902 188.515C331.902 188.515 365.367 287.863 346.866 308.071C325.603 331.264 243.698 322.61 240.495 317.895C237.292 313.18 323.177 319.865 332.631 297.842C342.085 275.819 320.034 190.878 323.966 188.515C327.898 186.151 329.535 183.012 331.902 188.515Z" fill="#FEC21C"/>
<path d="M270.875 92.9622C270.875 92.9622 248.824 102.106 254.334 129.966C256.724 133.547 262.999 128.39 274.807 129.178C286.616 129.966 303.492 125.239 302.763 116.991C302.034 108.742 292.138 87.4594 270.875 92.9622Z" fill="#050505"/>
<path d="M228.351 136.614C228.351 136.614 229.128 127.96 222.435 124.427C218.102 121.969 214.346 118.616 211.415 114.591C211.046 114.79 210.721 115.061 210.459 115.389C210.198 115.716 210.006 116.093 209.894 116.497C209.782 116.901 209.754 117.323 209.81 117.738C209.866 118.153 210.005 118.553 210.22 118.912C211.797 121.67 213.375 122.493 213.375 124.427C213.336 125.712 212.921 126.957 212.18 128.008C212.18 128.008 207.399 124.857 204.304 122.505C201.208 120.154 195.639 111.882 194.455 112.669C193.272 113.457 192.89 114.639 194.85 116.609C196.81 118.578 201.543 124.475 204.698 126.826C207.853 129.178 190.942 113.803 189.758 114.591C188.575 115.379 190.954 118.912 194.085 122.064C197.216 125.215 205.116 129.142 209.837 131.505C214.558 133.869 228.351 136.614 228.351 136.614Z" fill="#F79D8D"/>
<path d="M229.331 140.744C229.331 140.744 245.286 199.472 244.402 208.783C243.518 218.093 227.562 218.046 225.195 210.967C222.829 203.889 221.108 149.589 218.718 141.329C216.327 133.069 196.87 128.354 196.87 128.354C196.87 128.354 185.061 118.327 186.244 117.731C187.428 117.134 192.149 117.731 196.284 121.312C200.419 124.893 202.188 126.086 211.044 126.623C219.901 127.16 226.403 126.623 228.769 131.923C231.135 137.223 229.331 140.744 229.331 140.744Z" fill="#F9B4AB"/>
<path d="M262.999 154.901C262.999 154.901 258.219 154.304 252.362 164.331C246.506 174.358 223.427 207.398 233.467 213.271C243.506 219.144 251.179 212.077 254.131 206.193C257.083 200.308 281.31 171.982 279.529 164.307C279.151 162.554 278.407 160.901 277.346 159.454C276.284 158.008 274.929 156.802 273.369 155.914C271.809 155.026 270.079 154.477 268.293 154.303C266.506 154.128 264.702 154.332 262.999 154.901Z" fill="#F3706B"/>
<path d="M159.294 404.65L156.569 408.685C156.569 408.685 143.075 426.65 143.075 429.801C143.075 432.952 162.867 419.464 164.672 417.22C165.791 415.767 166.56 414.076 166.919 412.278L168.27 406.883L159.294 404.65Z" fill="#030229"/>
<path d="M206.539 407.336L208.344 412.278C208.344 412.278 209.694 428.452 213.734 432.498C217.786 435.638 220.033 413.627 218.24 409.127C217.426 407.434 216.524 405.784 215.539 404.185L206.539 407.336Z" fill="#030229"/>
<path d="M265.485 264.885C265.485 264.885 216.889 264.885 178.237 289.152C158.445 307.128 200.743 407.324 204.34 409.127C208.834 410.929 215.587 407.778 218.288 404.185C220.081 400.604 208.834 335.884 209.742 318.802L279.923 296.338L265.485 264.885Z" fill="#413CDF"/>
<path d="M170.994 409.58C168.293 410.475 160.237 409.58 157.5 404.185C154.764 398.789 188.993 317.048 206.993 298.14C224.992 279.233 259.186 264.885 259.186 264.885L268.114 238.851L317.726 234.136C317.726 234.136 334.77 274.721 326.678 291.85C326.678 291.85 324.873 310.721 294.277 312.512C263.68 314.302 240.279 317.907 232.187 322.407C224.096 326.907 170.994 409.58 170.994 409.58Z" fill="#605BFF"/>
<path d="M270.613 149.363C267.232 150.361 264.134 152.14 261.57 154.556C259.006 156.972 257.047 159.956 255.852 163.269C255.745 163.567 255.625 163.854 255.518 164.14C253.94 168.067 245.275 179.873 251.573 189.302C257.872 198.732 261.027 201.896 261.027 216.828C261.027 231.761 258.637 232.561 261.027 237.288C264.959 242.062 287.011 250.657 323.177 236.5C328.902 234.256 316.089 215.265 319.245 198.744C322.4 182.224 328.687 163.352 322.388 155.486C317.057 148.754 294.337 142.595 270.613 149.363Z" fill="#F3706B"/>
<path d="M318.516 153.123C318.516 153.123 325.603 153.719 335.045 166.694C344.487 179.67 362.224 199.723 363.992 206.801C365.188 213.88 353.953 218.607 344.499 213.295C335.045 207.983 317.918 187.93 311.428 180.243C304.939 172.555 305.524 150.174 318.516 153.123Z" fill="#F3706B"/>
<path d="M353.774 199.341C353.774 199.341 363.849 200.045 364.267 208.89C364.686 217.735 357.634 218.643 340.997 217.055C324.36 215.467 296.537 214.417 291.194 214.083C285.852 213.749 283.724 218.559 277.151 217.103C270.577 215.646 269.896 213.892 266.956 214.035C264.016 214.178 257.765 219.777 254.753 218.738C251.741 217.7 261.554 212.519 267.314 209.296C273.075 206.073 285.374 203.507 290.154 204.522C294.935 205.536 327.205 200.63 338.428 200.105L353.774 199.341Z" fill="#F9B4AB"/>
<path d="M265.951 151.356C265.951 151.356 258.864 164.928 276.576 170.24C294.289 175.551 316.448 158.148 315.85 150.771C308.273 147.226 281.011 143.096 265.951 151.356Z" fill="#F79D8D"/>
<path d="M262.605 118.912C262.605 118.912 258.661 128.354 261.409 132.281C264.158 136.208 274.795 135.039 277.162 137.796C279.528 140.553 280.305 146.832 275.584 149.983C273.194 153.123 293.297 153.91 297.241 149.589C296.847 147.202 290.548 138.19 291.337 132.675C292.126 127.16 294.48 117.349 295.269 109.088C296.058 100.828 286.604 96.8893 281.094 96.1134C275.584 95.3375 267.708 96.4954 265.736 103.192C263.764 109.888 259.832 116.167 258.649 117.349C257.465 118.53 262.605 118.912 262.605 118.912Z" fill="#F79D8D"/>
<path d="M277.174 99.2527C277.174 99.2527 274.413 102.834 278.369 109.876C282.325 116.919 287.022 124.427 282.696 134.251C288.098 134.598 293.506 133.676 298.487 131.559C303.468 129.443 307.884 126.191 311.38 122.064C310.185 117.731 304.687 100.828 293.656 93.75C282.624 86.6716 270.828 90.9926 266.489 94.9436C262.151 98.8947 253.593 109.733 254.382 120.01C254.43 123.09 259.151 93.4038 277.174 99.2527Z" fill="#030229"/>
<path d="M277.461 147.226C277.749 149.269 278.514 151.215 279.696 152.908C280.877 154.6 282.441 155.99 284.261 156.966C287.5 157.551 294.301 151.069 296.07 146.044" stroke="#25215A" stroke-width="0.494165" stroke-miterlimit="10"/>
<path d="M284.262 161.096C285.569 161.096 286.628 160.038 286.628 158.733C286.628 157.427 285.569 156.369 284.262 156.369C282.955 156.369 281.896 157.427 281.896 158.733C281.896 160.038 282.955 161.096 284.262 161.096Z" fill="white"/>
<path d="M176.911 198.195H127.395V206.801H176.911V198.195Z" fill="white"/>
<path d="M178.763 198.195V196.715H78.3916V206.801H127.394V198.195H178.763Z" fill="#25215A"/>
<path d="M181.954 192.86H132.438V196.715H181.954V192.86Z" fill="white"/>
<path d="M183.818 192.859V191.379H83.4473V196.715H132.438V192.859H183.818Z" fill="#516AB2"/>
<path d="M184.117 206.801H83.7461V216.888H184.117V206.801Z" fill="#F15C62"/>
<path d="M184.105 208.282H132.736V216.888H184.105V208.282Z" fill="white"/>
<path d="M119.004 200.642H106.98V203.316H119.004V200.642Z" fill="#F58D76"/>
<path d="M121.454 200.642H119.972V203.316H121.454V200.642Z" fill="#4C54A4"/>
<path d="M307.484 217.246H245.012V214.62H304.878C305.224 214.618 305.567 214.685 305.886 214.817C306.206 214.948 306.497 215.141 306.741 215.385C306.986 215.63 307.179 215.92 307.311 216.239C307.442 216.558 307.509 216.901 307.508 217.246H307.484Z" fill="#C4DFF4"/>
<path d="M252.996 216.757H156.569L148.382 161.144C148.324 160.744 148.352 160.337 148.465 159.95C148.578 159.562 148.774 159.203 149.038 158.898C149.302 158.592 149.629 158.347 149.996 158.178C150.363 158.01 150.763 157.922 151.167 157.921H241.929C242.604 157.919 243.257 158.159 243.77 158.597C244.284 159.035 244.622 159.642 244.725 160.308L252.996 216.757Z" fill="#C4DFF4"/>
<path d="M251.144 216.757H154.681L146.529 161.144C146.471 160.743 146.5 160.335 146.614 159.947C146.727 159.558 146.924 159.199 147.189 158.893C147.455 158.587 147.783 158.342 148.152 158.174C148.52 158.007 148.921 157.92 149.326 157.921H240.088C240.763 157.921 241.415 158.162 241.927 158.6C242.44 159.037 242.78 159.643 242.885 160.308L251.144 216.757Z" fill="black"/>
<path d="M201.663 190.663C201.758 191.542 201.662 192.43 201.383 193.269C201.104 194.107 200.647 194.876 200.044 195.523C199.44 196.169 198.705 196.678 197.887 197.016C197.07 197.354 196.189 197.511 195.305 197.479C193.41 197.48 191.579 196.797 190.149 195.555C188.719 194.313 187.786 192.597 187.524 190.723C187.429 189.845 187.524 188.957 187.804 188.119C188.083 187.281 188.54 186.513 189.144 185.867C189.747 185.222 190.483 184.713 191.3 184.377C192.118 184.041 192.999 183.885 193.882 183.919C195.775 183.918 197.605 184.599 199.035 185.839C200.465 187.078 201.398 188.791 201.663 190.663Z" fill="#D5E7F7"/>
<path d="M435.524 230.078L473.746 426.196H469.491L427.038 229.015L435.524 230.078Z" fill="#D5E7F7"/>
<path d="M410.723 230.078L448.933 426.196H444.69L402.226 229.015L410.723 230.078Z" fill="#7B9ED2"/>
<path d="M47.0898 230.078L8.87988 426.196H13.1228L55.5875 229.015L47.0898 230.078Z" fill="#D5E7F7"/>
<path d="M71.9015 230.078L33.6797 426.196H37.9226L80.3873 229.015L71.9015 230.078Z" fill="#7B9ED2"/>
<path d="M453.069 232.191H29.5446C26.5892 232.191 23.7547 231.019 21.6638 228.933C19.573 226.847 18.3967 224.017 18.3936 221.066H464.196C464.193 224.013 463.02 226.839 460.934 228.924C458.848 231.01 456.02 232.184 453.069 232.191Z" fill="#F89821"/>
<path d="M474.797 216.052H7.81641V222.343H474.797V216.052Z" fill="#234088"/>
<path d="M444.512 212.901H367.339V216.828H444.512V212.901Z" fill="#171142"/>
<path d="M443.723 153.516C443.723 154.916 443.307 156.285 442.528 157.449C441.749 158.613 440.643 159.52 439.347 160.056C438.052 160.592 436.627 160.732 435.253 160.459C433.878 160.186 432.615 159.512 431.624 158.522C430.633 157.532 429.958 156.27 429.684 154.897C429.411 153.524 429.551 152.101 430.087 150.808C430.624 149.514 431.532 148.409 432.698 147.631C433.863 146.853 435.233 146.438 436.635 146.438C437.566 146.436 438.489 146.618 439.349 146.974C440.21 147.329 440.992 147.85 441.65 148.508C442.309 149.165 442.831 149.946 443.186 150.806C443.542 151.665 443.724 152.586 443.723 153.516Z" fill="#D5E7F7"/>
<path d="M440.58 153.516C440.582 154.296 440.353 155.059 439.921 155.708C439.489 156.357 438.874 156.864 438.153 157.164C437.433 157.464 436.639 157.544 435.873 157.393C435.108 157.243 434.404 156.868 433.851 156.318C433.298 155.768 432.921 155.066 432.768 154.301C432.615 153.537 432.692 152.744 432.99 152.024C433.289 151.303 433.794 150.687 434.443 150.254C435.092 149.821 435.855 149.589 436.636 149.589C437.68 149.589 438.681 150.003 439.42 150.739C440.16 151.475 440.577 152.474 440.58 153.516Z" fill="white"/>
<path d="M106.108 17.0574L123.056 17.0574V15.5892L106.108 15.5892V17.0574Z" fill="white"/>
<path d="M114.594 21.7007H123.044V20.2325H114.594V21.7007Z" fill="white"/>
<path d="M112.18 26.2366H123.056V24.7684H112.18V26.2366Z" fill="white"/>
<path d="M99.9292 31.5484L123.044 31.5484V30.0802L99.9292 30.0802V31.5484Z" fill="white"/>
<path d="M111.51 36.2037H123.044V34.7355H111.51V36.2037Z" fill="white"/>
<path d="M108.212 40.7276H123.044V39.2594H108.212V40.7276Z" fill="white"/>
<path d="M346.423 92.6518H329.476V94.12H346.423V92.6518Z" fill="white"/>
<path d="M337.925 97.3071H329.476V98.7753H337.925V97.3071Z" fill="white"/>
<path d="M340.352 101.843H329.476V103.311H340.352V101.843Z" fill="white"/>
<path d="M352.59 107.167H329.476V108.635H352.59V107.167Z" fill="white"/>
<path d="M341.009 111.81H329.476V113.278H341.009V111.81Z" fill="white"/>
<path d="M344.308 116.346H329.476V117.814H344.308V116.346Z" fill="white"/>
</svg>
