<svg width="594" height="530" viewBox="0 0 594 530" fill="none" xmlns="http://www.w3.org/2000/svg">
<path d="M62.9322 237.706C62.9322 237.706 72.9908 227.643 67.9615 222.102C62.9322 216.56 61.4161 215.073 61.9263 206.512C62.4365 197.952 50.8618 199.979 50.8618 192.439C50.8618 184.9 47.8442 179.869 41.3133 178.352C34.7825 176.835 36.7942 168.29 32.7708 168.29C28.7473 168.29 24.2136 173.831 27.2312 178.863C30.2488 183.894 33.2664 186.402 32.2605 192.439C31.2547 198.477 38.806 197.966 39.8118 202.998C40.8177 208.029 34.7825 213.556 40.3075 218.587C45.8324 223.618 51.372 225.12 49.8559 229.656C48.3398 234.191 56.8532 239.733 62.9322 237.706Z" fill="#54A259"/>
<path d="M62.2908 245.07C62.2908 245.07 49.8851 232.66 56.0807 225.835C62.2762 219.01 64.1567 217.085 63.5299 206.6C62.903 196.114 77.1747 198.535 77.1747 189.217C77.1747 179.898 80.9066 173.715 88.9243 171.848C96.9421 169.981 94.5076 159.438 99.4641 159.438C104.421 159.438 110.018 166.263 106.286 172.475C102.555 178.687 98.8518 181.779 100.091 189.217C101.33 196.654 92.0148 196.056 90.7757 202.254C89.5366 208.452 96.9858 215.291 90.1634 221.489C83.3411 227.687 76.5187 229.554 78.37 235.139C80.2214 240.724 69.74 247.564 62.2908 245.07Z" fill="#68BF73"/>
<path d="M71.2853 266.041H57.3198C55.6659 266.038 54.0685 265.438 52.8226 264.35C51.5767 263.261 50.7664 261.759 50.5412 260.12L46.8239 233.01H81.8105L78.0931 260.12C77.8672 261.764 77.0527 263.27 75.8007 264.359C74.5487 265.448 72.9443 266.046 71.2853 266.041Z" fill="#D5E7F7"/>
<path d="M522.248 184.915C522.248 184.915 510.236 195.969 520.324 215.189C530.412 234.41 523.24 255.541 514.566 261.301" stroke="#171142" stroke-width="0.98833" stroke-miterlimit="10"/>
<path d="M496.548 247.258C496.548 247.258 506.635 251.939 506.635 262.03H483.224L496.548 247.258Z" fill="#D5E7F7"/>
<path d="M481.664 139.517L480.702 149.127L525.368 193.81L528.735 183.237L481.664 139.517Z" fill="#D5E7F7"/>
<path d="M482.778 133.122L477.685 138.216L530.998 191.549L536.091 186.455L482.778 133.122Z" fill="#171142"/>
<path d="M527.231 183.39L471.526 264.109L482.19 271.474L537.896 190.755L527.231 183.39Z" fill="#171142"/>
<path d="M346.236 385.01L309.734 517.615H305.885L335.667 382.137L346.236 385.01Z" fill="#7B9ED2"/>
<path d="M315.492 385.01L278.989 517.615H275.155L304.938 382.137L315.492 385.01Z" fill="#7B9ED2"/>
<path d="M367.36 385.01L403.862 517.615H407.711L377.928 382.137L367.36 385.01Z" fill="#7B9ED2"/>
<path d="M398.104 385.01L434.607 517.615H438.441L408.658 382.137L398.104 385.01Z" fill="#7B9ED2"/>
<path d="M412.551 296.622C412.551 296.622 411.589 220.716 376.106 219.754C340.624 218.791 318.48 247.608 314.632 282.199C310.783 316.79 287.75 363.865 282.94 378.287C278.129 392.71 345.376 397.508 363.628 391.748C381.879 385.987 420.291 385.025 417.405 344.658C414.519 304.292 412.551 296.622 412.551 296.622Z" fill="#F89821"/>
<path d="M404.824 230.312C404.824 230.312 445.642 351.688 423.076 376.377C397.142 404.712 297.241 394.139 293.334 388.379C289.427 382.618 394.183 390.785 405.714 363.879C417.245 336.973 390.349 233.199 395.145 230.312C399.941 227.424 401.938 223.589 404.824 230.312Z" fill="#FEC21C"/>
<path d="M330.39 113.574C330.39 113.574 303.494 124.744 310.215 158.781C313.13 163.156 320.784 156.857 335.186 157.819C349.589 158.782 370.173 153.007 369.284 142.93C368.395 132.853 356.324 106.851 330.39 113.574Z" fill="#050505"/>
<path d="M278.523 166.904C278.523 166.904 279.47 156.332 271.307 152.015C266.023 149.012 261.44 144.915 257.866 139.998C257.416 140.241 257.019 140.573 256.7 140.973C256.381 141.373 256.147 141.833 256.011 142.327C255.874 142.82 255.839 143.336 255.908 143.843C255.976 144.35 256.146 144.838 256.408 145.277C258.332 148.646 260.257 149.652 260.257 152.015C260.209 153.585 259.702 155.106 258.799 156.39C258.799 156.39 252.968 152.54 249.192 149.667C245.417 146.794 238.623 136.688 237.18 137.65C235.737 138.613 235.27 140.057 237.661 142.463C240.052 144.869 245.825 152.073 249.673 154.946C253.522 157.819 232.894 139.036 231.451 139.998C230.008 140.961 232.909 145.277 236.728 149.127C240.548 152.977 250.183 157.775 255.942 160.663C261.7 163.55 278.523 166.904 278.523 166.904Z" fill="#F79D8D"/>
<path d="M279.718 171.95C279.718 171.95 299.179 243.699 298.101 255.074C297.022 266.449 277.561 266.391 274.674 257.743C271.788 249.095 269.689 182.756 266.773 172.665C263.857 162.573 240.125 156.813 240.125 156.813C240.125 156.813 225.722 144.563 227.165 143.834C228.608 143.105 234.367 143.834 239.411 148.209C244.454 152.584 246.612 154.042 257.414 154.698C268.216 155.354 276.147 154.698 279.033 161.173C281.919 167.648 279.718 171.95 279.718 171.95Z" fill="#F9B4AB"/>
<path d="M320.784 189.246C320.784 189.246 314.952 188.517 307.809 200.766C300.666 213.016 272.517 253.383 284.762 260.557C297.007 267.732 306.366 259.099 309.967 251.91C313.568 244.72 343.117 210.114 340.945 200.737C340.484 198.596 339.576 196.575 338.282 194.808C336.987 193.042 335.335 191.568 333.432 190.483C331.529 189.399 329.419 188.728 327.24 188.515C325.06 188.301 322.86 188.551 320.784 189.246Z" fill="#F3706B"/>
<path d="M194.292 494.369L190.969 499.298C190.969 499.298 174.51 521.246 174.51 525.096C174.51 528.946 198.651 512.467 200.852 509.725C202.217 507.95 203.155 505.884 203.593 503.688L205.24 497.096L194.292 494.369Z" fill="#030229"/>
<path d="M251.918 497.65L254.12 503.688C254.12 503.688 255.767 523.448 260.694 528.392C265.636 532.227 268.377 505.336 266.19 499.838C265.197 497.77 264.098 495.754 262.895 493.8L251.918 497.65Z" fill="#030229"/>
<path d="M323.816 323.615C323.816 323.615 264.543 323.615 217.398 353.263C193.257 375.225 244.848 497.636 249.236 499.838C254.717 502.04 262.954 498.19 266.248 493.801C268.435 489.426 254.717 410.356 255.825 389.487L341.426 362.042L323.816 323.615Z" fill="#413CDF"/>
<path d="M208.564 500.392C205.269 501.486 195.444 500.392 192.106 493.8C188.767 487.209 230.518 387.343 252.472 364.244C274.426 341.144 316.133 323.615 316.133 323.615L327.023 291.809L387.535 286.049C387.535 286.049 408.323 335.632 398.454 356.558C398.454 356.558 396.253 379.614 358.934 381.802C321.615 383.989 293.071 388.393 283.202 393.891C273.333 399.389 208.564 500.392 208.564 500.392Z" fill="#605BFF"/>
<path d="M330.07 182.479C325.946 183.699 322.168 185.872 319.04 188.824C315.913 191.775 313.524 195.422 312.066 199.469C311.935 199.833 311.789 200.183 311.658 200.533C309.734 205.331 299.165 219.754 306.847 231.274C314.53 242.795 318.378 246.66 318.378 264.903C318.378 283.147 315.463 284.124 318.378 289.899C323.174 295.732 350.07 306.232 394.183 288.936C401.165 286.195 385.538 262.993 389.387 242.81C393.235 222.627 400.903 199.571 393.221 189.96C386.719 181.735 359.007 174.21 330.07 182.479Z" fill="#F3706B"/>
<path d="M388.497 187.073C388.497 187.073 397.142 187.802 408.658 203.654C420.175 219.506 441.808 244.006 443.966 252.653C445.423 261.301 431.72 267.076 420.189 260.587C408.658 254.097 387.768 229.597 379.853 220.206C371.937 210.814 372.651 183.471 388.497 187.073Z" fill="#F3706B"/>
<path d="M431.502 243.539C431.502 243.539 443.791 244.399 444.301 255.205C444.811 266.012 436.21 267.12 415.918 265.18C395.626 263.241 361.689 261.957 355.173 261.549C348.656 261.141 346.062 267.018 338.044 265.239C330.026 263.459 329.195 261.316 325.609 261.491C322.023 261.666 314.399 268.505 310.725 267.237C307.051 265.968 319.02 259.639 326.046 255.701C333.073 251.764 348.073 248.628 353.904 249.868C359.735 251.108 399.095 245.114 412.784 244.472L431.502 243.539Z" fill="#F9B4AB"/>
<path d="M324.384 184.915C324.384 184.915 315.74 201.496 337.344 207.985C358.948 214.475 385.975 193.212 385.246 184.2C376.004 179.869 342.752 174.823 324.384 184.915Z" fill="#F79D8D"/>
<path d="M320.302 145.277C320.302 145.277 315.492 156.813 318.845 161.611C322.198 166.408 335.172 164.979 338.058 168.348C340.945 171.717 341.892 179.388 336.134 183.237C333.218 187.073 357.738 188.035 362.549 182.756C362.068 179.84 354.385 168.829 355.347 162.092C356.31 155.354 359.181 143.367 360.144 133.276C361.106 123.184 349.575 118.372 342.854 117.424C336.134 116.476 326.527 117.89 324.122 126.071C321.717 134.253 316.92 141.923 315.477 143.367C314.034 144.811 320.302 145.277 320.302 145.277Z" fill="#F79D8D"/>
<path d="M338.073 121.259C338.073 121.259 334.705 125.634 339.531 134.238C344.356 142.842 350.085 152.015 344.808 164.017C351.397 164.441 357.993 163.314 364.069 160.729C370.144 158.143 375.53 154.17 379.794 149.127C378.337 143.834 371.631 123.184 358.176 114.536C344.72 105.888 330.332 111.167 325.04 115.994C319.749 120.822 309.311 134.063 310.273 146.619C310.331 150.382 316.09 114.113 338.073 121.259Z" fill="#030229"/>
<path d="M338.423 179.869C338.773 182.365 339.707 184.743 341.148 186.81C342.59 188.878 344.497 190.576 346.717 191.769C350.668 192.483 358.963 184.565 361.12 178.425" stroke="#25215A" stroke-width="0.494165" stroke-miterlimit="10"/>
<path d="M346.718 196.814C348.312 196.814 349.604 195.522 349.604 193.927C349.604 192.332 348.312 191.039 346.718 191.039C345.123 191.039 343.831 192.332 343.831 193.927C343.831 195.522 345.123 196.814 346.718 196.814Z" fill="white"/>
<path d="M215.78 242.139H155.384V252.653H215.78V242.139Z" fill="white"/>
<path d="M218.04 242.139V240.331H95.6156V252.653H155.384V242.139H218.04Z" fill="#25215A"/>
<path d="M221.932 235.62H161.536V240.331H221.932V235.62Z" fill="white"/>
<path d="M224.206 235.62V233.812H101.782V240.331H161.536V235.62H224.206Z" fill="#516AB2"/>
<path d="M224.571 252.653H102.146V264.976H224.571V252.653Z" fill="#F15C62"/>
<path d="M224.556 254.462H161.901V264.976H224.556V254.462Z" fill="white"/>
<path d="M145.151 245.128H130.485V248.395H145.151V245.128Z" fill="#F58D76"/>
<path d="M148.139 245.128H146.332V248.395H148.139V245.128Z" fill="#4C54A4"/>
<path d="M210.357 99.6468C210.357 100.321 210.157 100.979 209.781 101.539C209.406 102.099 208.873 102.534 208.25 102.79C207.627 103.046 206.941 103.11 206.281 102.976C205.621 102.841 205.016 102.513 204.543 102.034C204.07 101.554 203.75 100.944 203.624 100.282C203.498 99.6204 203.571 98.9359 203.835 98.3158C204.099 97.6958 204.541 97.1682 205.105 96.8001C205.67 96.4321 206.33 96.2402 207.004 96.2489C207.897 96.2604 208.75 96.6234 209.378 97.2594C210.005 97.8954 210.357 98.7531 210.357 99.6468Z" fill="#D5E7F7"/>
<path d="M203.476 131.336H156.04C154.341 131.336 152.964 132.714 152.964 134.413V161.494C152.964 163.193 154.341 164.571 156.04 164.571H203.476C205.175 164.571 206.552 163.193 206.552 161.494V134.413C206.552 132.714 205.175 131.336 203.476 131.336Z" fill="#D5E7F7"/>
<path d="M205.43 132.065L180.283 153.298L154.685 131.657C154.363 131.813 154.072 132.026 153.824 132.284L170.108 146.05L152.964 160.546V161.479C152.957 161.606 152.957 161.732 152.964 161.859L170.88 146.721L180.254 154.654L189.642 146.721L206.509 160.984V159.627L190.473 146.05L206.1 132.838C205.921 132.545 205.695 132.284 205.43 132.065Z" fill="#7B9ED2"/>
<path d="M373.541 74.2137H341.367C340.216 74.2137 339.283 75.1474 339.283 76.2991V94.6739C339.283 95.8256 340.216 96.7593 341.367 96.7593H373.541C374.692 96.7593 375.625 95.8256 375.625 94.6739V76.2991C375.625 75.1474 374.692 74.2137 373.541 74.2137Z" fill="#D5E7F7"/>
<path d="M374.867 74.7096L357.811 89.1177L340.449 74.4471C340.229 74.5488 340.031 74.6925 339.866 74.87L350.901 84.2032L339.239 94.0323V94.6739C339.239 94.7614 339.239 94.8343 339.239 94.9218L351.397 84.7136L357.753 90.0948L364.109 84.7136L375.552 94.3823V93.4781L364.663 84.2615L375.261 75.3075C375.162 75.0887 375.029 74.8869 374.867 74.7096Z" fill="#7B9ED2"/>
<path d="M375.042 265.414H298.844V262.205H371.864C372.286 262.203 372.704 262.285 373.094 262.446C373.484 262.606 373.838 262.842 374.136 263.141C374.434 263.439 374.67 263.793 374.831 264.184C374.991 264.574 375.073 264.992 375.071 265.414H375.042Z" fill="#C4DFF4"/>
<path d="M308.582 264.816H190.969L180.983 196.873C180.912 196.385 180.947 195.887 181.085 195.414C181.223 194.94 181.461 194.502 181.783 194.128C182.105 193.755 182.503 193.455 182.951 193.249C183.399 193.044 183.887 192.936 184.38 192.935H295.083C295.906 192.933 296.703 193.225 297.329 193.761C297.955 194.296 298.369 195.038 298.494 195.852L308.582 264.816Z" fill="#C4DFF4"/>
<path d="M306.323 264.816H188.665L178.723 196.873C178.652 196.383 178.687 195.885 178.826 195.41C178.965 194.936 179.204 194.497 179.528 194.123C179.852 193.749 180.252 193.45 180.702 193.245C181.152 193.04 181.64 192.934 182.135 192.935H292.838C293.661 192.936 294.456 193.23 295.081 193.764C295.707 194.299 296.121 195.039 296.249 195.852L306.323 264.816Z" fill="black"/>
<path d="M245.971 232.937C246.086 234.01 245.97 235.096 245.629 236.12C245.288 237.145 244.731 238.084 243.995 238.874C243.26 239.664 242.363 240.286 241.365 240.698C240.368 241.111 239.294 241.304 238.215 241.264C235.904 241.265 233.67 240.43 231.926 238.913C230.182 237.396 229.045 235.3 228.725 233.01C228.609 231.937 228.725 230.852 229.066 229.828C229.407 228.805 229.965 227.866 230.701 227.078C231.437 226.289 232.334 225.668 233.331 225.257C234.329 224.846 235.403 224.656 236.48 224.697C238.789 224.696 241.021 225.529 242.765 227.043C244.509 228.557 245.647 230.65 245.971 232.937Z" fill="#D5E7F7"/>
<path d="M531.214 281.09L577.833 520.692H572.644L520.863 279.793L531.214 281.09Z" fill="#D5E7F7"/>
<path d="M500.965 281.09L547.57 520.692H542.395L490.6 279.793L500.965 281.09Z" fill="#7B9ED2"/>
<path d="M57.4363 281.09L10.8312 520.692H16.0063L67.8011 279.793L57.4363 281.09Z" fill="#D5E7F7"/>
<path d="M87.6998 281.09L41.0801 520.692H46.2552L98.05 279.793L87.6998 281.09Z" fill="#7B9ED2"/>
<path d="M552.614 283.672H36.0361C32.4314 283.672 28.9741 282.24 26.4239 279.692C23.8736 277.143 22.4389 273.686 22.4351 270.08H566.185C566.182 273.681 564.751 277.134 562.207 279.681C559.663 282.229 556.213 283.664 552.614 283.672Z" fill="#F89821"/>
<path d="M579.116 263.955H9.53394V271.641H579.116V263.955Z" fill="#234088"/>
<path d="M542.176 260.105H448.048V264.903H542.176V260.105Z" fill="#171142"/>
<path d="M541.214 187.554C541.214 189.264 540.707 190.936 539.757 192.359C538.807 193.781 537.457 194.889 535.877 195.544C534.298 196.198 532.56 196.369 530.883 196.036C529.206 195.702 527.666 194.878 526.457 193.669C525.248 192.46 524.424 190.919 524.091 189.241C523.757 187.564 523.928 185.825 524.583 184.245C525.237 182.664 526.345 181.314 527.767 180.364C529.188 179.413 530.86 178.906 532.569 178.906C533.705 178.904 534.83 179.127 535.88 179.561C536.929 179.995 537.883 180.631 538.686 181.435C539.489 182.238 540.126 183.192 540.56 184.242C540.993 185.292 541.216 186.418 541.214 187.554Z" fill="#D5E7F7"/>
<path d="M537.38 187.554C537.383 188.506 537.103 189.438 536.576 190.232C536.05 191.025 535.299 191.644 534.42 192.011C533.542 192.377 532.574 192.474 531.64 192.29C530.706 192.106 529.847 191.649 529.173 190.977C528.499 190.304 528.039 189.447 527.852 188.513C527.665 187.579 527.76 186.611 528.123 185.73C528.487 184.85 529.104 184.098 529.895 183.568C530.687 183.039 531.617 182.756 532.569 182.756C533.843 182.756 535.064 183.261 535.966 184.161C536.868 185.06 537.376 186.28 537.38 187.554Z" fill="white"/>
<path d="M222.346 64.1748C227.942 40.7859 213.525 17.2875 190.145 11.6896C166.765 6.09172 143.275 20.5141 137.679 43.903C132.083 67.2918 146.5 90.7902 169.88 96.3881C193.261 101.986 216.75 87.5636 222.346 64.1748Z" fill="#D5E7F7"/>
<path d="M194.963 93.0406C177.368 75.4387 155.851 76.5762 144.32 78.9241C149.926 86.9776 158.09 92.8988 167.484 95.7262C176.879 98.5535 186.953 98.121 196.071 94.4989C195.706 94.0177 195.342 93.5364 194.963 93.0406Z" fill="#5679BC"/>
<path d="M198.141 59.3243C198.141 59.3243 200.371 68.5992 197.252 71.8075C194.132 75.0158 184.554 72.3908 181.974 74.5783C179.394 76.7658 177.747 82.4386 181.624 86.0261C183.344 89.2636 164.758 87.0469 161.784 82.4824C162.484 80.3678 169.612 72.9742 169.7 67.7826C169.787 62.5909 169.044 53.1994 169.539 45.4849C170.035 37.7704 179.292 35.5246 184.482 35.6121C189.671 35.6996 196.727 37.9454 197.602 44.362C198.211 49.2757 199.692 54.0412 201.975 58.4347C202.893 59.791 198.141 59.3243 198.141 59.3243Z" fill="#F79D8D"/>
<path d="M167.761 35.6704C167.761 35.6704 160.472 40.2058 162.557 47.9203C164.129 53.1075 166.667 57.9513 170.035 62.1972L177.062 59.7034C177.062 59.7034 172.295 52.9077 174.146 49.9619C175.997 47.0161 179.132 48.139 180.254 50.6327C180.959 52.493 181.272 54.479 181.172 56.466L183.884 55.5618C183.884 55.5618 185.254 46.9432 182.98 42.8599C180.706 38.7766 179.583 38.5579 179.583 38.5579C179.583 38.5579 181.843 42.1891 187.514 40.3662C193.185 38.5433 194.992 42.6411 198.855 43.2828C202.718 43.9245 204.293 40.1037 204.293 40.1037C203.603 40.2895 202.882 40.3244 202.177 40.2061C201.473 40.0879 200.802 39.8191 200.211 39.4183C198.17 38.062 196.814 31.9371 191.596 28.9913C186.377 26.0455 171.391 23.8726 167.761 35.6704Z" fill="#234088"/>
<path d="M150.647 10.0624H121.491C120.153 10.0624 118.87 10.594 117.924 11.5403C116.979 12.4865 116.447 13.77 116.447 15.1082V53.7827C116.447 55.121 116.979 56.4044 117.924 57.3506C118.87 58.2969 120.153 58.8285 121.491 58.8285H137.177C138.285 60.4618 140.938 63.9909 143.912 65.2743V58.8285H150.647C151.308 58.8285 151.963 58.6979 152.575 58.4441C153.186 58.1904 153.741 57.8185 154.208 57.3498C154.675 56.881 155.045 56.3247 155.297 55.7126C155.549 55.1005 155.678 54.4447 155.676 53.7827V15.1082C155.678 14.4462 155.549 13.7904 155.297 13.1783C155.045 12.5662 154.675 12.0099 154.208 11.5412C153.741 11.0724 153.186 10.7005 152.575 10.4468C151.963 10.193 151.308 10.0624 150.647 10.0624Z" fill="#7B9ED2"/>
<path d="M129.421 20.8394L150.093 20.8394V19.0456L129.421 19.0456V20.8394Z" fill="white"/>
<path d="M139.772 26.5122H150.078V24.7185H139.772V26.5122Z" fill="white"/>
<path d="M136.827 32.0538H150.093V30.26H136.827V32.0538Z" fill="white"/>
<path d="M121.885 38.5433H150.078V36.7496H121.885V38.5433Z" fill="white"/>
<path d="M136.01 44.2307H150.078V42.437H136.01V44.2307Z" fill="white"/>
<path d="M131.987 49.7577H150.078V47.964H131.987V49.7577Z" fill="white"/>
<path d="M450.686 98.9176H398.818V168.1H450.686V98.9176Z" fill="#7B9ED2"/>
<path d="M445.409 94.1198H393.541V163.302H445.409V94.1198Z" fill="#D5E7F7"/>
<path d="M422.536 113.195H401.865V114.988H422.536V113.195Z" fill="white"/>
<path d="M412.172 118.882H401.865V120.676H412.172V118.882Z" fill="white"/>
<path d="M415.131 124.424H401.865V126.217H415.131V124.424Z" fill="white"/>
<path d="M430.059 130.928H401.865V132.721H430.059V130.928Z" fill="white"/>
<path d="M415.933 136.601H401.865V138.394H415.933V136.601Z" fill="white"/>
<path d="M419.956 142.142H401.865V143.936H419.956V142.142Z" fill="white"/>
<path d="M180.298 111.415H116.185V118.619H180.298V111.415Z" stroke="#7B9ED2" stroke-width="0.98833" stroke-miterlimit="10"/>
<path d="M400.728 66.0034H379.124V71.0492H400.728V66.0034Z" stroke="#7B9ED2" stroke-width="0.98833" stroke-miterlimit="10"/>
<path d="M367.607 38.6308C367.607 39.2076 367.436 39.7715 367.116 40.2512C366.796 40.7308 366.34 41.1047 365.807 41.3254C365.275 41.5462 364.689 41.6039 364.123 41.4914C363.557 41.3788 363.038 41.1011 362.63 40.6932C362.222 40.2853 361.945 39.7656 361.832 39.1998C361.72 38.634 361.777 38.0476 361.998 37.5146C362.219 36.9817 362.593 36.5262 363.072 36.2057C363.551 35.8852 364.115 35.7142 364.692 35.7142C365.465 35.7142 366.207 36.0215 366.753 36.5684C367.3 37.1154 367.607 37.8573 367.607 38.6308Z" stroke="#7B9ED2" stroke-width="0.98833" stroke-miterlimit="10"/>
<path d="M380.567 38.6308C380.567 39.2076 380.396 39.7715 380.076 40.2512C379.755 40.7308 379.3 41.1047 378.767 41.3254C378.235 41.5462 377.648 41.6039 377.083 41.4914C376.517 41.3788 375.998 41.1011 375.59 40.6932C375.182 40.2853 374.904 39.7656 374.792 39.1998C374.679 38.634 374.737 38.0476 374.958 37.5146C375.179 36.9817 375.552 36.5262 376.032 36.2057C376.511 35.8852 377.075 35.7142 377.652 35.7142C378.425 35.7142 379.166 36.0215 379.713 36.5684C380.26 37.1154 380.567 37.8573 380.567 38.6308Z" stroke="#7B9ED2" stroke-width="0.98833" stroke-miterlimit="10"/>
<path d="M393.6 38.6308C393.6 39.2076 393.429 39.7715 393.108 40.2512C392.788 40.7308 392.333 41.1047 391.8 41.3254C391.267 41.5462 390.681 41.6039 390.115 41.4914C389.55 41.3788 389.03 41.1011 388.622 40.6932C388.215 40.2853 387.937 39.7656 387.824 39.1998C387.712 38.634 387.77 38.0476 387.99 37.5146C388.211 36.9817 388.585 36.5262 389.064 36.2057C389.544 35.8852 390.107 35.7142 390.684 35.7142C391.457 35.7142 392.199 36.0215 392.746 36.5684C393.292 37.1154 393.6 37.8573 393.6 38.6308Z" stroke="#7B9ED2" stroke-width="0.98833" stroke-miterlimit="10"/>
<path d="M108.983 94.3531C108.983 94.7338 108.871 95.106 108.659 95.4225C108.448 95.7391 108.147 95.9858 107.796 96.1315C107.444 96.2772 107.057 96.3153 106.684 96.2411C106.31 96.1668 105.968 95.9835 105.698 95.7142C105.429 95.445 105.246 95.102 105.172 94.7286C105.098 94.3552 105.136 93.9682 105.281 93.6164C105.427 93.2647 105.674 92.964 105.99 92.7525C106.307 92.541 106.679 92.4281 107.059 92.4281C107.569 92.4281 108.059 92.6309 108.42 92.9919C108.781 93.3529 108.983 93.8425 108.983 94.3531Z" fill="#5679BC"/>
<path d="M121.476 94.3531C121.476 94.7332 121.364 95.1048 121.153 95.421C120.942 95.7373 120.643 95.984 120.292 96.1301C119.941 96.2762 119.555 96.3152 119.182 96.2421C118.809 96.169 118.466 95.9871 118.197 95.7193C117.927 95.4516 117.743 95.1099 117.667 94.7375C117.591 94.3651 117.627 93.9785 117.77 93.6265C117.914 93.2745 118.158 92.9729 118.473 92.7596C118.787 92.5463 119.158 92.431 119.538 92.4281C119.792 92.4262 120.043 92.4746 120.278 92.5704C120.514 92.6663 120.727 92.8078 120.908 92.9868C121.088 93.1657 121.231 93.3786 121.329 93.6131C121.426 93.8476 121.476 94.0991 121.476 94.3531Z" fill="#5679BC"/>
<path d="M133.955 94.3531C133.955 94.7344 133.842 95.1072 133.63 95.4241C133.418 95.7409 133.116 95.9876 132.764 96.1329C132.411 96.2782 132.024 96.3154 131.65 96.24C131.276 96.1645 130.933 95.9797 130.665 95.709C130.396 95.4383 130.214 95.094 130.142 94.7196C130.069 94.3453 130.109 93.9578 130.257 93.6063C130.405 93.2548 130.654 92.9552 130.972 92.7454C131.291 92.5357 131.664 92.4252 132.045 92.4281C132.553 92.432 133.039 92.6365 133.397 92.9971C133.754 93.3577 133.955 93.8451 133.955 94.3531Z" fill="#5679BC"/>
</svg>
