<svg width="313" height="74" viewBox="0 0 313 74" fill="none" xmlns="http://www.w3.org/2000/svg">
<path fill-rule="evenodd" clip-rule="evenodd" d="M74.2183 38.373C74.2272 38.0414 74.2316 37.7087 74.2316 37.375C74.2316 17.1476 57.8341 0.75 37.6066 0.75C18.4582 0.75 2.74194 15.4448 1.1197 34.1726L21.1499 43.9651C22.0714 42.2239 23.9015 41.0375 26.0087 41.0375C27.8333 41.0375 29.4501 41.9269 30.4492 43.2959L46.2175 30.2871C46.1747 30.0108 46.1525 29.7278 46.1525 29.4396C46.1525 26.4055 48.6122 23.9458 51.6463 23.9458C54.6804 23.9458 57.14 26.4055 57.14 29.4396C57.14 29.4978 57.1391 29.5557 57.1373 29.6135L74.2183 38.373ZM31.3304 45.1617L46.9434 32.281C47.906 33.8708 49.6521 34.9333 51.6463 34.9333C53.9019 34.9333 55.84 33.574 56.6861 31.6297L74.0953 40.5575C72.4824 59.2948 56.7618 74 37.6066 74C17.3792 74 0.981628 57.6024 0.981628 37.375C0.981628 37.0283 0.986446 36.6827 0.996017 36.3383L20.551 45.8986C20.5272 46.1062 20.515 46.3173 20.515 46.5312C20.515 49.5654 22.9746 52.025 26.0087 52.025C29.0428 52.025 31.5025 49.5654 31.5025 46.5312C31.5025 46.0584 31.4427 45.5995 31.3304 45.1617Z" fill="#605BFF"/>
<path fill-rule="evenodd" clip-rule="evenodd" d="M74.2183 38.373C74.2272 38.0414 74.2316 37.7087 74.2316 37.375C74.2316 17.1476 57.8341 0.75 37.6066 0.75C18.4582 0.75 2.74194 15.4448 1.1197 34.1726L21.1499 43.9651C22.0714 42.2239 23.9015 41.0375 26.0087 41.0375C27.8333 41.0375 29.4501 41.9269 30.4492 43.2959L46.2175 30.2871C46.1747 30.0108 46.1525 29.7278 46.1525 29.4396C46.1525 26.4055 48.6122 23.9458 51.6463 23.9458C54.6804 23.9458 57.14 26.4055 57.14 29.4396C57.14 29.4978 57.1391 29.5557 57.1373 29.6135L74.2183 38.373ZM31.3304 45.1617L46.9434 32.281C47.906 33.8708 49.6521 34.9333 51.6463 34.9333C53.9019 34.9333 55.84 33.574 56.6861 31.6297L74.0953 40.5575C72.4824 59.2948 56.7618 74 37.6066 74C17.3792 74 0.981628 57.6024 0.981628 37.375C0.981628 37.0283 0.986446 36.6827 0.996017 36.3383L20.551 45.8986C20.5272 46.1062 20.515 46.3173 20.515 46.5312C20.515 49.5654 22.9746 52.025 26.0087 52.025C29.0428 52.025 31.5025 49.5654 31.5025 46.5312C31.5025 46.0584 31.4427 45.5995 31.3304 45.1617Z" fill="#605BFF"/>
<path d="M130.13 23.7761C130.29 23.3495 130.53 23.0295 130.85 22.8161C131.17 22.6028 131.53 22.4961 131.93 22.4961C132.436 22.4961 132.876 22.6695 133.25 23.0161C133.65 23.3361 133.85 23.7628 133.85 24.2961C133.85 24.5895 133.796 24.8561 133.69 25.0961L124.85 49.8161C124.663 50.2695 124.37 50.6161 123.97 50.8561C123.57 51.0961 123.13 51.2161 122.65 51.2161C122.196 51.2161 121.77 51.0961 121.37 50.8561C120.97 50.6161 120.69 50.2695 120.53 49.8161L113.25 29.1761L105.81 49.8161C105.65 50.2695 105.37 50.6161 104.97 50.8561C104.57 51.0961 104.143 51.2161 103.69 51.2161C103.21 51.2161 102.77 51.0961 102.37 50.8561C101.996 50.6161 101.716 50.2695 101.53 49.8161L92.6897 25.0961C92.583 24.8561 92.5297 24.5895 92.5297 24.2961C92.5297 23.7628 92.7297 23.3361 93.1297 23.0161C93.5297 22.6695 94.0097 22.4961 94.5697 22.4961C94.9697 22.4961 95.3297 22.6028 95.6497 22.8161C95.9963 23.0295 96.2497 23.3495 96.4097 23.7761L103.81 45.0561L111.33 23.9761C111.49 23.5228 111.743 23.1761 112.09 22.9361C112.463 22.6961 112.863 22.5761 113.29 22.5761C113.716 22.5761 114.103 22.7095 114.45 22.9761C114.796 23.2161 115.063 23.5628 115.25 24.0161L122.61 45.2561L130.13 23.7761ZM151.236 31.0161C151.85 31.0161 152.33 31.1895 152.676 31.5361C153.05 31.8828 153.236 32.3628 153.236 32.9761V49.2561C153.236 49.8161 153.05 50.2695 152.676 50.6161C152.303 50.9628 151.81 51.1361 151.196 51.1361C150.636 51.1361 150.183 50.9761 149.836 50.6561C149.49 50.3095 149.316 49.8561 149.316 49.2961V47.7761C148.703 48.8961 147.85 49.7495 146.756 50.3361C145.69 50.9228 144.49 51.2161 143.156 51.2161C138.41 51.2161 136.036 48.6028 136.036 43.3761V32.9761C136.036 32.3628 136.21 31.8828 136.556 31.5361C136.93 31.1895 137.436 31.0161 138.076 31.0161C138.69 31.0161 139.17 31.1895 139.516 31.5361C139.89 31.8828 140.076 32.3628 140.076 32.9761V43.3361C140.076 44.9095 140.396 46.0695 141.036 46.8161C141.676 47.5628 142.663 47.9361 143.996 47.9361C145.57 47.9361 146.823 47.4295 147.756 46.4161C148.716 45.4028 149.196 44.0561 149.196 42.3761V32.9761C149.196 32.3895 149.383 31.9228 149.756 31.5761C150.13 31.2028 150.623 31.0161 151.236 31.0161ZM169.13 31.0161C170.41 30.9361 171.05 31.4828 171.05 32.6561C171.05 33.2428 170.903 33.6828 170.61 33.9761C170.316 34.2695 169.81 34.4428 169.09 34.4961L167.89 34.6161C166.21 34.7761 164.956 35.3628 164.13 36.3761C163.33 37.3895 162.93 38.6161 162.93 40.0561V49.2161C162.93 49.8561 162.743 50.3361 162.37 50.6561C161.996 50.9761 161.516 51.1361 160.93 51.1361C160.343 51.1361 159.85 50.9761 159.45 50.6561C159.076 50.3361 158.89 49.8561 158.89 49.2161V32.9361C158.89 32.3228 159.076 31.8561 159.45 31.5361C159.85 31.1895 160.343 31.0161 160.93 31.0161C161.463 31.0161 161.903 31.1895 162.25 31.5361C162.623 31.8561 162.81 32.3095 162.81 32.8961V34.8161C163.343 33.6428 164.116 32.7495 165.13 32.1361C166.143 31.5228 167.29 31.1628 168.57 31.0561L169.13 31.0161ZM189.938 47.7761C190.418 48.1761 190.658 48.6695 190.658 49.2561C190.658 49.7628 190.485 50.2028 190.138 50.5761C189.791 50.9495 189.378 51.1361 188.898 51.1361C188.391 51.1361 187.938 50.9495 187.538 50.5761L177.578 41.7761V49.1761C177.578 49.8161 177.391 50.3095 177.018 50.6561C176.645 50.9761 176.165 51.1361 175.578 51.1361C174.991 51.1361 174.498 50.9761 174.098 50.6561C173.725 50.3095 173.538 49.8161 173.538 49.1761V24.4961C173.538 23.8561 173.725 23.3761 174.098 23.0561C174.498 22.7095 174.991 22.5361 175.578 22.5361C176.165 22.5361 176.645 22.7095 177.018 23.0561C177.391 23.3761 177.578 23.8561 177.578 24.4961V40.1761L186.698 31.6561C187.151 31.2561 187.591 31.0561 188.018 31.0561C188.525 31.0561 188.965 31.2428 189.338 31.6161C189.711 31.9895 189.898 32.4295 189.898 32.9361C189.898 33.4428 189.671 33.9095 189.218 34.3361L182.098 40.8561L189.938 47.7761ZM204.002 51.2561C201.975 51.2561 200.042 50.9761 198.202 50.4161C196.389 49.8561 194.935 49.0828 193.842 48.0961C193.335 47.6695 193.082 47.1228 193.082 46.4561C193.082 45.9761 193.215 45.5761 193.482 45.2561C193.749 44.9095 194.069 44.7361 194.442 44.7361C194.815 44.7361 195.269 44.9095 195.802 45.2561C198.175 47.0161 200.882 47.8961 203.922 47.8961C206.055 47.8961 207.695 47.4961 208.842 46.6961C209.989 45.8961 210.562 44.7495 210.562 43.2561C210.562 42.0828 210.029 41.2028 208.962 40.6161C207.895 40.0295 206.189 39.4695 203.842 38.9361C201.602 38.4561 199.762 37.9095 198.322 37.2961C196.882 36.6828 195.749 35.8561 194.922 34.8161C194.122 33.7495 193.722 32.4028 193.722 30.7761C193.722 29.1495 194.162 27.7095 195.042 26.4561C195.949 25.1761 197.202 24.1895 198.802 23.4961C200.402 22.7761 202.229 22.4161 204.282 22.4161C206.175 22.4161 207.922 22.6828 209.522 23.2161C211.122 23.7495 212.482 24.5361 213.602 25.5761C214.135 26.0295 214.402 26.5761 214.402 27.2161C214.402 27.6695 214.255 28.0695 213.962 28.4161C213.695 28.7628 213.375 28.9361 213.002 28.9361C212.655 28.9361 212.215 28.7628 211.682 28.4161C210.455 27.4828 209.295 26.8161 208.202 26.4161C207.135 25.9895 205.842 25.7761 204.322 25.7761C202.269 25.7761 200.669 26.2028 199.522 27.0561C198.375 27.8828 197.802 29.0428 197.802 30.5361C197.802 31.8161 198.309 32.7895 199.322 33.4561C200.335 34.0961 201.962 34.6828 204.202 35.2161C206.549 35.7495 208.442 36.3095 209.882 36.8961C211.349 37.4561 212.509 38.2428 213.362 39.2561C214.242 40.2428 214.682 41.5228 214.682 43.0961C214.682 44.6961 214.229 46.1228 213.322 47.3761C212.442 48.6028 211.189 49.5628 209.562 50.2561C207.962 50.9228 206.109 51.2561 204.002 51.2561ZM229.76 30.9361C231.44 30.9361 232.934 31.3628 234.24 32.2161C235.574 33.0695 236.6 34.2695 237.32 35.8161C238.067 37.3628 238.44 39.1495 238.44 41.1761C238.44 43.1761 238.08 44.9361 237.36 46.4561C236.64 47.9761 235.614 49.1495 234.28 49.9761C232.974 50.8028 231.467 51.2161 229.76 51.2161C228.294 51.2161 227 50.9095 225.88 50.2961C224.76 49.6561 223.907 48.7495 223.32 47.5761V56.4961C223.32 57.0561 223.134 57.4961 222.76 57.8161C222.414 58.1628 221.947 58.3361 221.36 58.3361C220.747 58.3361 220.24 58.1628 219.84 57.8161C219.467 57.4695 219.28 57.0028 219.28 56.4161V32.9761C219.28 32.3895 219.467 31.9228 219.84 31.5761C220.214 31.2028 220.707 31.0161 221.32 31.0161C221.907 31.0161 222.387 31.2028 222.76 31.5761C223.134 31.9228 223.32 32.3895 223.32 32.9761V34.6161C223.907 33.4428 224.76 32.5361 225.88 31.8961C227 31.2561 228.294 30.9361 229.76 30.9361ZM228.8 48.0161C230.56 48.0161 231.92 47.4295 232.88 46.2561C233.84 45.0561 234.32 43.3628 234.32 41.1761C234.32 38.9628 233.827 37.2428 232.84 36.0161C231.88 34.7895 230.534 34.1761 228.8 34.1761C227.04 34.1761 225.68 34.7761 224.72 35.9761C223.787 37.1761 223.32 38.8828 223.32 41.0961C223.32 43.3095 223.787 45.0161 224.72 46.2161C225.68 47.4161 227.04 48.0161 228.8 48.0161ZM251.113 30.9361C253.7 30.9361 255.62 31.5895 256.873 32.8961C258.153 34.2028 258.793 36.1895 258.793 38.8561V49.2161C258.793 49.8295 258.62 50.3095 258.273 50.6561C257.926 50.9761 257.446 51.1361 256.833 51.1361C256.246 51.1361 255.78 50.9628 255.433 50.6161C255.086 50.2695 254.913 49.8028 254.913 49.2161V47.7361C254.406 48.8561 253.646 49.7228 252.633 50.3361C251.646 50.9228 250.486 51.2161 249.153 51.2161C247.873 51.2161 246.7 50.9628 245.633 50.4561C244.566 49.9228 243.726 49.1895 243.113 48.2561C242.526 47.3228 242.233 46.2828 242.233 45.1361C242.233 43.7228 242.593 42.6161 243.313 41.8161C244.06 40.9895 245.273 40.4028 246.953 40.0561C248.66 39.7095 250.993 39.5361 253.953 39.5361H254.873V38.3761C254.873 36.8828 254.566 35.8028 253.953 35.1361C253.34 34.4695 252.353 34.1361 250.993 34.1361C250.06 34.1361 249.18 34.2561 248.353 34.4961C247.526 34.7361 246.62 35.0828 245.633 35.5361C244.913 35.9361 244.406 36.1361 244.113 36.1361C243.713 36.1361 243.38 35.9895 243.113 35.6961C242.873 35.4028 242.753 35.0295 242.753 34.5761C242.753 34.1761 242.86 33.8295 243.073 33.5361C243.313 33.2161 243.686 32.9095 244.193 32.6161C245.126 32.1095 246.22 31.7095 247.473 31.4161C248.726 31.0961 249.94 30.9361 251.113 30.9361ZM249.873 48.2161C251.34 48.2161 252.54 47.7228 253.473 46.7361C254.406 45.7228 254.873 44.4295 254.873 42.8561V41.8161H254.153C252.073 41.8161 250.473 41.9095 249.353 42.0961C248.233 42.2828 247.433 42.6028 246.953 43.0561C246.473 43.4828 246.233 44.1095 246.233 44.9361C246.233 45.8961 246.58 46.6828 247.273 47.2961C247.966 47.9095 248.833 48.2161 249.873 48.2161ZM272.679 51.2161C270.786 51.2161 269.119 50.8028 267.679 49.9761C266.266 49.1495 265.159 47.9761 264.359 46.4561C263.586 44.9361 263.199 43.1761 263.199 41.1761C263.199 39.1495 263.599 37.3628 264.399 35.8161C265.226 34.2695 266.373 33.0695 267.839 32.2161C269.306 31.3628 270.986 30.9361 272.879 30.9361C273.893 30.9361 274.906 31.0828 275.919 31.3761C276.959 31.6695 277.879 32.0695 278.679 32.5761C279.533 33.1628 279.959 33.8428 279.959 34.6161C279.959 35.0695 279.839 35.4561 279.599 35.7761C279.359 36.0695 279.053 36.2161 278.679 36.2161C278.439 36.2161 278.199 36.1628 277.959 36.0561C277.719 35.9228 277.413 35.7361 277.039 35.4961C276.373 35.0695 275.746 34.7495 275.159 34.5361C274.599 34.2961 273.919 34.1761 273.119 34.1761C271.306 34.1761 269.893 34.7895 268.879 36.0161C267.893 37.2428 267.399 38.9495 267.399 41.1361C267.399 43.3228 267.893 45.0161 268.879 46.2161C269.866 47.3895 271.266 47.9761 273.079 47.9761C273.879 47.9761 274.586 47.8561 275.199 47.6161C275.813 47.3761 276.439 47.0561 277.079 46.6561C277.373 46.4695 277.666 46.3095 277.959 46.1761C278.253 46.0428 278.519 45.9761 278.759 45.9761C279.133 45.9761 279.439 46.1361 279.679 46.4561C279.919 46.7495 280.039 47.1228 280.039 47.5761C280.039 47.9495 279.933 48.2961 279.719 48.6161C279.533 48.9095 279.199 49.2161 278.719 49.5361C277.919 50.0695 276.986 50.4828 275.919 50.7761C274.853 51.0695 273.773 51.2161 272.679 51.2161ZM298.935 46.0161C299.309 46.0161 299.615 46.1628 299.855 46.4561C300.095 46.7495 300.215 47.1228 300.215 47.5761C300.215 48.3495 299.735 49.0028 298.775 49.5361C297.842 50.0695 296.815 50.4828 295.695 50.7761C294.602 51.0695 293.549 51.2161 292.535 51.2161C289.442 51.2161 287.002 50.3228 285.215 48.5361C283.429 46.7228 282.535 44.2561 282.535 41.1361C282.535 39.1361 282.922 37.3628 283.695 35.8161C284.495 34.2695 285.602 33.0695 287.015 32.2161C288.455 31.3628 290.082 30.9361 291.895 30.9361C294.509 30.9361 296.575 31.7761 298.095 33.4561C299.615 35.1361 300.375 37.4028 300.375 40.2561C300.375 41.3228 299.895 41.8561 298.935 41.8561H286.575C286.842 45.9895 288.829 48.0561 292.535 48.0561C293.522 48.0561 294.375 47.9228 295.095 47.6561C295.815 47.3895 296.575 47.0428 297.375 46.6161C297.455 46.5628 297.669 46.4561 298.015 46.2961C298.389 46.1095 298.695 46.0161 298.935 46.0161ZM291.975 33.8961C290.429 33.8961 289.189 34.3895 288.255 35.3761C287.322 36.3628 286.762 37.7495 286.575 39.5361H296.895C296.815 37.7228 296.349 36.3361 295.495 35.3761C294.669 34.3895 293.495 33.8961 291.975 33.8961Z" fill="#030229"/>
</svg>
