<svg width="20" height="20" viewBox="0 0 20 20" fill="none" xmlns="http://www.w3.org/2000/svg">
<path fill-rule="evenodd" clip-rule="evenodd" d="M18.997 8.97412H19C19.551 8.97412 19.999 9.42012 20 9.97112C20.008 12.6421 18.975 15.1571 17.091 17.0511C15.208 18.9451 12.7 19.9921 10.029 20.0001H10C7.33905 20.0001 4.83605 18.9681 2.94905 17.0911C1.05505 15.2081 0.00804612 12.7001 4.61203e-05 10.0291C-0.00795388 7.35712 1.02505 4.84312 2.90905 2.94912C4.79205 1.05512 7.30005 0.00812207 9.97105 0.00012207C10.766 0.0121221 11.576 0.0921221 12.352 0.278122C12.888 0.408122 13.219 0.948122 13.089 1.48512C12.96 2.02112 12.417 2.35112 11.883 2.22312C11.262 2.07312 10.603 2.01012 9.97705 2.00012C7.84005 2.00612 5.83305 2.84412 4.32705 4.35912C2.82005 5.87412 1.99405 7.88612 2.00005 10.0231C2.00605 12.1601 2.84405 14.1661 4.35905 15.6731C5.86905 17.1741 7.87105 18.0001 10 18.0001H10.023C12.16 17.9941 14.167 17.1561 15.673 15.6411C17.18 14.1251 18.006 12.1141 18 9.97712C17.999 9.42512 18.445 8.97512 18.997 8.97412ZM6.29305 9.29302C6.68405 8.90202 7.31605 8.90202 7.70705 9.29302L9.95105 11.537L16.248 4.34102C16.612 3.92802 17.243 3.88402 17.659 4.24802C18.074 4.61102 18.116 5.24302 17.752 5.65902L10.752 13.659C10.57 13.867 10.31 13.99 10.033 14H10C9.73505 14 9.48105 13.895 9.29305 13.707L6.29305 10.707C5.90205 10.316 5.90205 9.68402 6.29305 9.29302Z" fill="#605BFF"/>
</svg>
