<svg width="16" height="16" viewBox="0 0 16 16" fill="none" xmlns="http://www.w3.org/2000/svg">
<path d="M7.99992 7.33333C8.52734 7.33333 9.04291 7.17694 9.48144 6.88392C9.91997 6.5909 10.2618 6.17443 10.4636 5.68716C10.6654 5.19989 10.7182 4.66371 10.6153 4.14643C10.5125 3.62914 10.2585 3.15399 9.88554 2.78105C9.5126 2.40811 9.03744 2.15413 8.52016 2.05124C8.00288 1.94835 7.4667 2.00116 6.97943 2.20299C6.49216 2.40482 6.07568 2.74662 5.78267 3.18515C5.48965 3.62368 5.33325 4.13925 5.33325 4.66667C5.33325 5.37391 5.6142 6.05219 6.1143 6.55229C6.6144 7.05238 7.29267 7.33333 7.99992 7.33333ZM7.99992 3.33333C8.26363 3.33333 8.52141 3.41153 8.74068 3.55804C8.95994 3.70455 9.13084 3.91279 9.23176 4.15642C9.33267 4.40006 9.35908 4.66815 9.30763 4.92679C9.25619 5.18543 9.1292 5.42301 8.94273 5.60948C8.75626 5.79595 8.51868 5.92294 8.26004 5.97438C8.0014 6.02583 7.73331 5.99942 7.48967 5.89851C7.24604 5.79759 7.0378 5.62669 6.89129 5.40743C6.74478 5.18816 6.66659 4.93038 6.66659 4.66667C6.66659 4.31305 6.80706 3.97391 7.05711 3.72386C7.30716 3.47381 7.6463 3.33333 7.99992 3.33333Z" fill="#605BFF"/>
<path d="M7.99992 8.66669C6.76224 8.66669 5.57526 9.15835 4.70009 10.0335C3.82492 10.9087 3.33325 12.0957 3.33325 13.3334C3.33325 13.5102 3.40349 13.6797 3.52851 13.8048C3.65354 13.9298 3.82311 14 3.99992 14C4.17673 14 4.3463 13.9298 4.47132 13.8048C4.59635 13.6797 4.66659 13.5102 4.66659 13.3334C4.66659 12.4493 5.01777 11.6015 5.6429 10.9763C6.26802 10.3512 7.11586 10 7.99992 10C8.88397 10 9.73182 10.3512 10.3569 10.9763C10.9821 11.6015 11.3333 12.4493 11.3333 13.3334C11.3333 13.5102 11.4035 13.6797 11.5285 13.8048C11.6535 13.9298 11.8231 14 11.9999 14C12.1767 14 12.3463 13.9298 12.4713 13.8048C12.5963 13.6797 12.6666 13.5102 12.6666 13.3334C12.6666 12.0957 12.1749 10.9087 11.2998 10.0335C10.4246 9.15835 9.2376 8.66669 7.99992 8.66669Z" fill="#605BFF"/>
</svg>
