<svg width="36" height="35" viewBox="0 0 36 35" fill="none" xmlns="http://www.w3.org/2000/svg">
<path fill-rule="evenodd" clip-rule="evenodd" d="M35.0027 17.3935L26.7811 13.1776C26.5357 11.9823 25.4776 11.0834 24.2095 11.0834C22.8462 11.0834 21.7256 12.1226 21.5967 13.452L13.7322 19.9396C13.2651 19.5113 12.6424 19.25 11.9587 19.25C11.1407 19.25 10.4102 19.624 9.92871 20.2104L0.122537 15.4167C1.1526 6.73375 8.54056 0 17.5014 0C27.1318 0 34.9454 7.77751 35.0027 17.3935ZM9.34796 22.1527L0 17.583C0.0446835 27.2098 7.86321 35 17.5014 35C26.5108 35 33.9302 28.1931 34.8965 19.4421L34.8378 19.5565L26.3626 15.2107C25.8881 15.8894 25.1007 16.3334 24.2095 16.3334C23.4445 16.3334 22.756 16.0062 22.2761 15.4841L14.5836 21.8299C14.5838 21.8449 14.5839 21.8599 14.5839 21.875C14.5839 23.3247 13.4086 24.5 11.9587 24.5C10.6026 24.5 9.48667 23.4719 9.34796 22.1527Z" fill="white"/>
<path fill-rule="evenodd" clip-rule="evenodd" d="M35.0027 17.3935L26.7811 13.1776C26.5357 11.9823 25.4776 11.0834 24.2095 11.0834C22.8462 11.0834 21.7256 12.1226 21.5967 13.452L13.7322 19.9396C13.2651 19.5113 12.6424 19.25 11.9587 19.25C11.1407 19.25 10.4102 19.624 9.92871 20.2104L0.122537 15.4167C1.1526 6.73375 8.54056 0 17.5014 0C27.1318 0 34.9454 7.77751 35.0027 17.3935ZM9.34796 22.1527L0 17.583C0.0446835 27.2098 7.86321 35 17.5014 35C26.5108 35 33.9302 28.1931 34.8965 19.4421L34.8378 19.5565L26.3626 15.2107C25.8881 15.8894 25.1007 16.3334 24.2095 16.3334C23.4445 16.3334 22.756 16.0062 22.2761 15.4841L14.5836 21.8299C14.5838 21.8449 14.5839 21.8599 14.5839 21.875C14.5839 23.3247 13.4086 24.5 11.9587 24.5C10.6026 24.5 9.48667 23.4719 9.34796 22.1527Z" fill="white"/>
</svg>
